<?xml version="1.0" encoding="utf-8"?>
<!-- Generator: Adobe Illustrator 16.0.0, SVG Export Plug-In . SVG Version: 6.00 Build 0)  -->
<!DOCTYPE svg PUBLIC "-//W3C//DTD SVG 1.1//EN" "http://www.w3.org/Graphics/SVG/1.1/DTD/svg11.dtd">
<svg version="1.1" id="레이어_1" xmlns="http://www.w3.org/2000/svg" xmlns:xlink="http://www.w3.org/1999/xlink" x="0px"
	 y="0px" width="2452px" height="488px" viewBox="0 0 2452 488" enable-background="new 0 0 2452 488" xml:space="preserve">
<g display="none">
	<path display="inline" fill="#FFFFFF" d="M257.807,475.107c-9.703,9.705-25.441,9.705-35.146,0L10.32,262.766
		c-9.705-9.705-9.704-25.441,0-35.146L222.663,15.278c9.703-9.704,25.439-9.705,35.145,0l212.342,212.341
		c9.705,9.705,9.705,25.442,0,35.146L257.807,475.107z M337.987,191.447l1.727-0.691c-26.213,1.101-20.855-7.317-20.855-7.317
		c-33.496-5.18-39.92-15.817-51.314-21.343c-11.396-5.525-22.445-7.252-22.445-7.252l3.352-3.549
		c-11.397-2.072-37.278,6.861-39.608,4.586c-8.607-8.412-16.261-13.004-16.261-13.004c-4.592,3.061-2.296,9.184-2.296,9.184
		c-21.429-6.888-22.078-17.618-22.194-17.602c-5.356,0.766-9.949,5.356-2.296,11.479c-6.122-0.765-13.775-17.602-13.775-17.602
		s-9.184,14.541,7.653,17.602c-15.307-3.061-20.583-22.171-20.583-22.171c-10.795,12.987,4.144,44.544,38.674,43.854
		c34.531-0.691,52.487,15.193,52.487,15.193C273.069,220.453,337.987,191.447,337.987,191.447z M217.993,186
		c0,0-23.755,11.488-35.567,27.969c0,0-6.555,19.488,2.072,23.137c0,0-1.531-8.979,12.776-8.979c2.763,0,5.18,11.051,29.006,12.086
		c0,0-8.938-10.147,0.102-18.234c2.016-1.805,6.793-3.799,1.53-10.715c0,0,9.949-3.826,11.479,12.244
		c0,0,5.536-15.063-13.802-29.912c0,0,3.115-2.697,6.914,0.064C232.503,193.66,228.676,186.773,217.993,186z M183.633,242.767
		c0,0-24.517,12.431-41.091,29.696c0,0,21.749-2.508,25.548-2.508c0,0-18.367,23.725-39.796,29.848
		c-16.289,4.653-34.096,8.572-48.253,5.809c0,0,6.926,23.273,38.304,11.793c-2.296,4.591-3.827,13.011-3.827,13.011
		s17.319-2.357,24.571-5.12c0,0,1.726,3.108-1.036,8.287c0,0,15.539-2.418,23.826-6.561l5.18,8.979c0,0,14.848-1.036,20.373-15.886
		c0,0,6.679,11.83,7.251,15.54c11.962-1.174,40.056-26.589,40.056-26.589l14.475-0.845l4.592-9.949l13.01,0.766l6.943-9.31
		l10.66-2.936l2.295-9.184l9.184-3.062l2.379-7.608l8.336-2.341l0.986-4.91l5.525-3.454c0,0-17.992-6.942-35.221-4.488
		C254.465,255.081,198.703,284.496,183.633,242.767z M357.423,201.682c-25.78,0.13-45.653,4.204-39.132,9.125
		c1.843,1.392,51.883,23.493,28.507,27.86c-33.102,6.184-31.364,5.887-21.153,17.394s43.941,34.235,59.701,33.72
		c4.424-0.144-1.063-7.305-1.063-7.305s26.302,10.05,30.559,8.325c6.343-2.568-13.933-17.99-13.933-17.99
		s24.453,11.146,25.637,5.866c1.382-6.158-20.858-17.771-20.858-17.771s13.907,3.071,17.668-0.139
		c4.939-4.216-23.97-17.248-23.97-17.248s10.741,1.006,14.737-1.906c5.7-4.156-27.847-16.787-27.847-16.787s9.155,0.724,9.336-1.565
		c0.234-2.961-10.664-11.267-28.934-12.411C366.679,210.849,380.818,201.563,357.423,201.682z"/>
	<g display="inline">
		<path fill="#FFFFFF" d="M607.866,273.437v84.588l-39.851,43.835V99h115.211c49.941,0,74.913,28.179,74.913,78.119v21.404
			c0,49.945-24.972,74.913-74.913,74.913H607.866z M607.866,138.85v91.78h75.36c21.404,0,36.219-10.702,36.219-32.106v-21.404
			c0-21.402-14.814-38.27-36.219-38.27H607.866z"/>
		<path fill="#FFFFFF" d="M972.178,230.63l-41.528,42.807h-87.669v88.573h129.197l-41.528,39.85H803.13V99h169.048l-41.528,43.835
			h-87.669v87.795H972.178z"/>
		<path fill="#FFFFFF" d="M1109.975,273.437h-52.183v84.588l-42.808,43.835V99h117.722c49.941,0,74.913,28.179,74.913,78.119v21.404
			c0,44.948-16.694,69.637-50.085,74.057l55.023,129.279h-47.987L1109.975,273.437z M1057.792,142.835v87.795h74.914
			c21.403,0,37.044-10.702,37.044-32.106v-21.404c0-21.402-15.641-34.284-37.044-34.284H1057.792z"/>
		<path fill="#FFFFFF" d="M1421.658,230.63l-40.703,42.807h-87.721v88.573h128.424l-40.703,39.85h-130.527V99h171.23l-40.703,43.835
			h-87.721v87.795H1421.658z"/>
		<path fill="#FFFFFF" d="M1504.49,326.946c0,21.404,13.486,35.063,34.889,35.063h42.809c21.402,0,33.883-13.659,33.883-35.063
			v-53.51h-63.76V230.63h103.611v96.316c0,49.945-23.795,74.913-73.734,74.913h-42.809c-49.945,0-74.738-24.968-74.738-74.913
			V177.119c0-49.94,24.793-78.119,74.738-78.119H1657.1l-41.029,39.85h-76.691c-21.402,0-34.889,16.867-34.889,38.27V326.946z"/>
		<path fill="#FFFFFF" d="M1775.471,273.437h-32.756v84.588l-42.807,43.835V99h117.721c49.941,0,73.406,28.179,73.406,78.119v21.404
			c0,44.948-34.354,69.637-67.744,74.057l69.25,129.279h-49.324L1775.471,273.437z M1742.715,142.835v87.795h74.914
			c21.404,0,33.557-10.702,33.557-32.106v-21.404c0-21.402-12.152-34.284-33.557-34.284H1742.715z"/>
		<path fill="#FFFFFF" d="M1978.158,99v302.859h-42.809V99H1978.158z"/>
		<path fill="#FFFFFF" d="M2063.773,99l126.139,217.244V99h43.834v302.859h-41.551l-125.818-214.038v170.203l-43.836,43.835V99
			H2063.773z"/>
		<path fill="#FFFFFF" d="M2449.041,230.63l-39.955,42.807h-88.467v88.573h128.422l-39.955,39.85h-131.275V99h171.23l-39.955,43.835
			h-88.467v87.795H2449.041z"/>
	</g>
</g>
<g display="none">
	<path display="inline" fill="#040000" d="M256.807,475.107c-9.703,9.705-25.441,9.705-35.146,0L9.32,262.766
		c-9.705-9.705-9.704-25.441,0-35.146L221.663,15.278c9.703-9.704,25.439-9.705,35.145,0l212.342,212.341
		c9.705,9.705,9.705,25.442,0,35.146L256.807,475.107z M336.987,191.447l1.727-0.691c-26.213,1.101-20.855-7.317-20.855-7.317
		c-33.496-5.18-39.92-15.817-51.314-21.343c-11.396-5.525-22.445-7.252-22.445-7.252l3.352-3.549
		c-11.397-2.072-37.278,6.861-39.608,4.586c-8.607-8.412-16.261-13.004-16.261-13.004c-4.592,3.061-2.296,9.184-2.296,9.184
		c-21.429-6.888-22.078-17.618-22.194-17.602c-5.356,0.766-9.949,5.356-2.296,11.479c-6.122-0.765-13.775-17.602-13.775-17.602
		s-9.184,14.541,7.653,17.602c-15.307-3.061-20.583-22.171-20.583-22.171c-10.795,12.987,4.144,44.544,38.674,43.854
		c34.531-0.691,52.487,15.193,52.487,15.193C272.069,220.453,336.987,191.447,336.987,191.447z M216.993,186
		c0,0-23.755,11.488-35.567,27.969c0,0-6.555,19.488,2.072,23.137c0,0-1.531-8.979,12.776-8.979c2.763,0,5.18,11.051,29.006,12.086
		c0,0-8.938-10.147,0.102-18.234c2.016-1.805,6.793-3.799,1.53-10.715c0,0,9.949-3.826,11.479,12.244
		c0,0,5.536-15.063-13.802-29.912c0,0,3.115-2.697,6.914,0.064C231.503,193.66,227.676,186.773,216.993,186z M182.633,242.767
		c0,0-24.517,12.431-41.091,29.696c0,0,21.749-2.508,25.548-2.508c0,0-18.367,23.725-39.796,29.848
		c-16.289,4.653-34.096,8.572-48.253,5.809c0,0,6.926,23.273,38.304,11.793c-2.296,4.591-3.827,13.011-3.827,13.011
		s17.319-2.357,24.571-5.12c0,0,1.726,3.108-1.036,8.287c0,0,15.539-2.418,23.826-6.561l5.18,8.979c0,0,14.848-1.036,20.373-15.886
		c0,0,6.679,11.83,7.251,15.54c11.962-1.174,40.056-26.589,40.056-26.589l14.475-0.845l4.592-9.949l13.01,0.766l6.943-9.31
		l10.66-2.936l2.295-9.184l9.184-3.062l2.379-7.608l8.336-2.341l0.986-4.91l5.525-3.454c0,0-17.992-6.942-35.221-4.488
		C253.465,255.081,197.703,284.496,182.633,242.767z M356.423,201.682c-25.78,0.13-45.653,4.204-39.132,9.125
		c1.843,1.392,51.883,23.493,28.507,27.86c-33.102,6.184-31.364,5.887-21.153,17.394s43.941,34.235,59.701,33.72
		c4.424-0.144-1.063-7.305-1.063-7.305s26.302,10.05,30.559,8.325c6.343-2.568-13.933-17.99-13.933-17.99
		s24.453,11.146,25.637,5.866c1.382-6.158-20.858-17.771-20.858-17.771s13.907,3.071,17.668-0.139
		c4.939-4.216-23.97-17.248-23.97-17.248s10.741,1.006,14.737-1.906c5.7-4.156-27.847-16.787-27.847-16.787s9.155,0.724,9.336-1.565
		c0.234-2.961-10.664-11.267-28.934-12.411C365.679,210.849,379.818,201.563,356.423,201.682z"/>
	<g display="inline">
		<path fill="#040000" d="M606.866,273.437v84.588l-39.851,43.835V99h115.211c49.941,0,74.913,28.179,74.913,78.119v21.404
			c0,49.945-24.972,74.913-74.913,74.913H606.866z M606.866,138.85v91.78h75.36c21.404,0,36.219-10.702,36.219-32.106v-21.404
			c0-21.402-14.814-38.27-36.219-38.27H606.866z"/>
		<path fill="#040000" d="M971.178,230.63l-41.528,42.807h-87.669v88.573h129.197l-41.528,39.85H802.13V99h169.048l-41.528,43.836
			h-87.669v87.794H971.178z"/>
		<path fill="#040000" d="M1108.975,273.437h-52.183v84.588l-42.808,43.835V99h117.722c49.941,0,74.913,28.179,74.913,78.119v21.404
			c0,44.948-16.694,69.637-50.085,74.057l55.023,129.279h-47.987L1108.975,273.437z M1056.792,142.836v87.794h74.914
			c21.403,0,37.044-10.702,37.044-32.106v-21.404c0-21.402-15.641-34.283-37.044-34.283H1056.792z"/>
		<path fill="#040000" d="M1420.658,230.63l-40.703,42.807h-87.721v88.573h128.424l-40.703,39.85h-130.527V99h171.23l-40.703,43.836
			h-87.721v87.794H1420.658z"/>
		<path fill="#040000" d="M1503.49,326.946c0,21.404,13.486,35.063,34.889,35.063h42.809c21.402,0,33.883-13.659,33.883-35.063
			v-53.51h-63.76V230.63h103.611v96.316c0,49.945-23.795,74.913-73.734,74.913h-42.809c-49.945,0-74.738-24.968-74.738-74.913
			V177.119c0-49.94,24.793-78.119,74.738-78.119H1656.1l-41.029,39.85h-76.691c-21.402,0-34.889,16.867-34.889,38.27V326.946z"/>
		<path fill="#040000" d="M1774.471,273.437h-32.756v84.588l-42.807,43.835V99h117.721c49.941,0,73.406,28.179,73.406,78.119v21.404
			c0,44.948-34.354,69.637-67.744,74.057l69.25,129.279h-49.324L1774.471,273.437z M1741.715,142.836v87.794h74.914
			c21.404,0,33.557-10.702,33.557-32.106v-21.404c0-21.402-12.152-34.283-33.557-34.283H1741.715z"/>
		<path fill="#040000" d="M1977.158,99v302.859h-42.809V99H1977.158z"/>
		<path fill="#040000" d="M2062.773,99l126.139,217.244V99h43.834v302.859h-41.551l-125.818-214.038v170.203l-43.836,43.835V99
			H2062.773z"/>
		<path fill="#040000" d="M2448.041,230.63l-39.955,42.807h-88.467v88.573h128.422l-39.955,39.85h-131.275V99h171.23l-39.955,43.836
			h-88.467v87.794H2448.041z"/>
	</g>
</g>
<g display="none">
	<g display="inline">
		<path fill="#FFFFFF" d="M606.866,273.437v84.588l-39.851,43.835V99h115.211c49.941,0,74.913,28.179,74.913,78.119v21.404
			c0,49.945-24.972,74.913-74.913,74.913H606.866z M606.866,138.85v91.78h75.36c21.404,0,36.219-10.702,36.219-32.106v-21.404
			c0-21.402-14.814-38.27-36.219-38.27H606.866z"/>
		<path fill="#FFFFFF" d="M971.178,230.63l-41.528,42.807h-87.669v88.573h129.197l-41.528,39.85H802.13V99h169.048l-41.528,43.836
			h-87.669v87.794H971.178z"/>
		<path fill="#FFFFFF" d="M1108.975,273.437h-52.183v84.588l-42.808,43.835V99h117.722c49.941,0,74.913,28.179,74.913,78.119v21.404
			c0,44.948-16.694,69.637-50.085,74.057l55.023,129.279h-47.987L1108.975,273.437z M1056.792,142.836v87.794h74.914
			c21.403,0,37.044-10.702,37.044-32.106v-21.404c0-21.402-15.641-34.283-37.044-34.283H1056.792z"/>
		<path fill="#FFFFFF" d="M1420.658,230.63l-40.703,42.807h-87.721v88.573h128.424l-40.703,39.85h-130.527V99h171.23l-40.703,43.836
			h-87.721v87.794H1420.658z"/>
		<path fill="#FFFFFF" d="M1503.49,326.946c0,21.404,13.486,35.063,34.889,35.063h42.809c21.402,0,33.883-13.659,33.883-35.063
			v-53.51h-63.76V230.63h103.611v96.316c0,49.945-23.795,74.913-73.734,74.913h-42.809c-49.945,0-74.738-24.968-74.738-74.913
			V177.119c0-49.94,24.793-78.119,74.738-78.119H1656.1l-41.029,39.85h-76.691c-21.402,0-34.889,16.867-34.889,38.27V326.946z"/>
		<path fill="#FFFFFF" d="M1774.471,273.437h-32.756v84.588l-42.807,43.835V99h117.721c49.941,0,73.406,28.179,73.406,78.119v21.404
			c0,44.948-34.354,69.637-67.744,74.057l69.25,129.279h-49.324L1774.471,273.437z M1741.715,142.836v87.794h74.914
			c21.404,0,33.557-10.702,33.557-32.106v-21.404c0-21.402-12.152-34.283-33.557-34.283H1741.715z"/>
		<path fill="#FFFFFF" d="M1977.158,99v302.859h-42.809V99H1977.158z"/>
		<path fill="#FFFFFF" d="M2062.773,99l126.139,217.244V99h43.834v302.859h-41.551l-125.818-214.038v170.203l-43.836,43.835V99
			H2062.773z"/>
		<path fill="#FFFFFF" d="M2448.041,230.63l-39.955,42.807h-88.467v88.573h128.422l-39.955,39.85h-131.275V99h171.23l-39.955,43.836
			h-88.467v87.794H2448.041z"/>
	</g>
	<path display="inline" fill="#FFFFFF" d="M473.178,227.033L258.986,12.842c-9.79-9.789-25.663-9.788-35.451,0L9.343,227.033
		c-9.79,9.789-9.791,25.662,0,35.452l214.189,214.193c9.791,9.788,25.666,9.788,35.454,0l214.192-214.193
		C482.968,252.697,482.968,236.822,473.178,227.033z M310.922,261.22l-1.021,5.08l-8.625,2.423l-2.461,7.872l-9.503,3.169
		l-2.375,9.5l-11.03,3.038l-7.184,9.633l-13.462-0.792l-4.752,10.296l-14.977,0.873c0,0-29.07,26.299-41.446,27.513
		c-0.592-3.84-7.504-16.08-7.504-16.08c-5.718,15.367-21.08,16.438-21.08,16.438l-5.36-9.291
		c-8.575,4.287-24.652,6.789-24.652,6.789c2.856-5.358,1.071-8.575,1.071-8.575c-7.503,2.858-25.425,5.298-25.425,5.298
		s1.584-8.711,3.962-13.462c-32.471,11.879-39.636-12.203-39.636-12.203c14.649,2.859,33.074-1.195,49.93-6.01
		c22.172-6.336,41.177-30.885,41.177-30.885c-3.931,0-26.436,2.595-26.436,2.595c15.139-15.769,36.673-27.638,41.521-30.206
		c2.63-1.802,10.843-7.27,16.5-9.327c0,0,16.111,15.492,42.446,12.084c0,0-15.602-11.667-14.252-17.97
		c0.93-4.338,10.535-4.338,7.437-14.563c0,0,6.196,12.703,4.957,23.238c0,0,21.378-16.732-4.647-41.208c0,0,5.267-0.62,11.773,3.098
		c0,0-6.757-6.543-12.068-11.803c-1.258-0.969-2.503-1.988-3.733-3.069c0,0-17.758-19.474-53.488-18.757
		c-35.73,0.713-51.187-31.939-40.018-45.378c0,0,3.737,13.535,13.998,20.003c-6.829-5.441-0.62-15.275-0.62-15.275
		s7.918,17.422,14.255,18.213c-7.921-6.335-3.169-11.085,2.375-11.877c0.12-0.017,0.792,11.086,22.965,18.213
		c0,0-2.376-6.336,2.375-9.502c0,0,7.919,4.752,16.827,13.456c2.409,2.354,29.19-6.892,40.982-4.746l-3.468,3.672
		c0,0,11.433,1.787,23.225,7.504c11.791,5.718,18.438,16.725,53.097,22.084c0,0-11.189,6.629,15.935,5.488
		c0,0-36.251,17.041-18.9,26.336c11.849,6.348,25.097,14.253,24.477,18.59c-0.663,4.642-27.905,1.912-29.332,10.47
		c-0.619,3.718,1.887,14.439,1.887,14.439L310.922,261.22z M238.913,222.527c-1.583-16.629-11.878-12.669-11.878-12.669
		c5.445,7.156,0.502,9.22-1.583,11.087c-9.354,8.368-0.106,18.868-0.106,18.868c-24.653-1.073-27.153-12.506-30.013-12.506
		c-14.805,0-13.219,9.289-13.219,9.289c-8.927-3.774-2.144-23.939-2.144-23.939c12.222-17.053,36.801-28.94,36.801-28.94
		c11.056,0.801,15.016,7.928,15.016,7.928c-3.931-2.858-7.155-0.069-7.155-0.069C244.641,206.942,238.913,222.527,238.913,222.527z
		 M434.292,278.451c-1.146,5.48-26.612-5.688-26.612-5.688s21.206,15.655,14.681,18.404c-4.378,1.848-31.74-8.16-31.74-8.16
		s5.783,7.327,1.208,7.541c-16.298,0.769-51.533-22.248-62.269-34.002c-10.734-11.753-12.528-11.421,21.628-18.309
		c24.121-4.865-27.979-26.988-29.906-28.401c-6.82-4.997,13.68-9.505,40.351-10.021c24.203-0.47,9.712,9.348,9.712,9.348
		c18.919,0.912,30.318,9.345,30.12,12.41c-0.153,2.371-9.636,1.758-9.636,1.758s34.896,12.572,29.06,16.956
		c-4.092,3.072-15.22,2.191-15.22,2.191s30.103,13.056,25.055,17.489c-3.843,3.377-18.276,0.405-18.276,0.405
		S435.629,272.059,434.292,278.451z"/>
</g>
<g display="none">
	<g display="inline">
		<path fill="#040000" d="M606.866,273.437v84.588l-39.851,43.835V99h115.211c49.941,0,74.913,28.179,74.913,78.119v21.404
			c0,49.945-24.972,74.913-74.913,74.913H606.866z M606.866,138.85v91.78h75.36c21.404,0,36.219-10.702,36.219-32.106v-21.404
			c0-21.402-14.814-38.27-36.219-38.27H606.866z"/>
		<path fill="#040000" d="M971.178,230.63l-41.528,42.807h-87.669v88.573h129.197l-41.528,39.85H802.13V99h169.048l-41.528,43.836
			h-87.669v87.794H971.178z"/>
		<path fill="#040000" d="M1108.975,273.437h-52.183v84.588l-42.808,43.835V99h117.722c49.941,0,74.913,28.179,74.913,78.119v21.404
			c0,44.948-16.694,69.637-50.085,74.057l55.023,129.279h-47.987L1108.975,273.437z M1056.792,142.836v87.794h74.914
			c21.403,0,37.044-10.702,37.044-32.106v-21.404c0-21.402-15.641-34.283-37.044-34.283H1056.792z"/>
		<path fill="#040000" d="M1420.658,230.63l-40.703,42.807h-87.721v88.573h128.424l-40.703,39.85h-130.527V99h171.23l-40.703,43.836
			h-87.721v87.794H1420.658z"/>
		<path fill="#040000" d="M1503.49,326.946c0,21.404,13.486,35.063,34.889,35.063h42.809c21.402,0,33.883-13.659,33.883-35.063
			v-53.51h-63.76V230.63h103.611v96.316c0,49.945-23.795,74.913-73.734,74.913h-42.809c-49.945,0-74.738-24.968-74.738-74.913
			V177.119c0-49.94,24.793-78.119,74.738-78.119H1656.1l-41.029,39.85h-76.691c-21.402,0-34.889,16.867-34.889,38.27V326.946z"/>
		<path fill="#040000" d="M1774.471,273.437h-32.756v84.588l-42.807,43.835V99h117.721c49.941,0,73.406,28.179,73.406,78.119v21.404
			c0,44.948-34.354,69.637-67.744,74.057l69.25,129.279h-49.324L1774.471,273.437z M1741.715,142.836v87.794h74.914
			c21.404,0,33.557-10.702,33.557-32.106v-21.404c0-21.402-12.152-34.283-33.557-34.283H1741.715z"/>
		<path fill="#040000" d="M1977.158,99v302.859h-42.809V99H1977.158z"/>
		<path fill="#040000" d="M2062.773,99l126.139,217.244V99h43.834v302.859h-41.551l-125.818-214.038v170.203l-43.836,43.835V99
			H2062.773z"/>
		<path fill="#040000" d="M2448.041,230.63l-39.955,42.807h-88.467v88.573h128.422l-39.955,39.85h-131.275V99h171.23l-39.955,43.836
			h-88.467v87.794H2448.041z"/>
	</g>
	<path display="inline" fill="#040000" d="M473.178,227.033L258.986,12.842c-9.79-9.789-25.663-9.788-35.451,0L9.343,227.033
		c-9.79,9.789-9.791,25.662,0,35.452l214.189,214.193c9.791,9.788,25.666,9.788,35.454,0l214.192-214.193
		C482.968,252.697,482.968,236.822,473.178,227.033z M310.922,261.22l-1.021,5.08l-8.625,2.423l-2.461,7.872l-9.503,3.169
		l-2.375,9.5l-11.03,3.038l-7.184,9.633l-13.462-0.792l-4.752,10.296l-14.977,0.873c0,0-29.07,26.299-41.446,27.513
		c-0.592-3.84-7.504-16.08-7.504-16.08c-5.718,15.367-21.08,16.438-21.08,16.438l-5.36-9.291
		c-8.575,4.287-24.652,6.789-24.652,6.789c2.856-5.358,1.071-8.575,1.071-8.575c-7.503,2.858-25.425,5.298-25.425,5.298
		s1.584-8.711,3.962-13.462c-32.471,11.879-39.636-12.203-39.636-12.203c14.649,2.859,33.074-1.195,49.93-6.01
		c22.172-6.336,41.177-30.885,41.177-30.885c-3.931,0-26.436,2.595-26.436,2.595c15.139-15.769,36.673-27.638,41.521-30.206
		c2.63-1.802,10.843-7.27,16.5-9.327c0,0,16.111,15.492,42.446,12.084c0,0-15.602-11.667-14.252-17.97
		c0.93-4.338,10.535-4.338,7.437-14.563c0,0,6.196,12.703,4.957,23.238c0,0,21.378-16.732-4.647-41.208c0,0,5.267-0.62,11.773,3.098
		c0,0-6.757-6.543-12.068-11.803c-1.258-0.969-2.503-1.988-3.733-3.069c0,0-17.758-19.474-53.488-18.757
		c-35.73,0.713-51.187-31.939-40.018-45.378c0,0,3.737,13.535,13.998,20.003c-6.829-5.441-0.62-15.275-0.62-15.275
		s7.918,17.422,14.255,18.213c-7.921-6.335-3.169-11.085,2.375-11.877c0.12-0.017,0.792,11.086,22.965,18.213
		c0,0-2.376-6.336,2.375-9.502c0,0,7.919,4.752,16.827,13.456c2.409,2.354,29.19-6.892,40.982-4.746l-3.468,3.672
		c0,0,11.433,1.787,23.225,7.504c11.791,5.718,18.438,16.725,53.097,22.084c0,0-11.189,6.629,15.935,5.488
		c0,0-36.251,17.041-18.9,26.336c11.849,6.348,25.097,14.253,24.477,18.59c-0.663,4.642-27.905,1.912-29.332,10.47
		c-0.619,3.718,1.887,14.439,1.887,14.439L310.922,261.22z M238.913,222.527c-1.583-16.629-11.878-12.669-11.878-12.669
		c5.445,7.156,0.502,9.22-1.583,11.087c-9.354,8.368-0.106,18.868-0.106,18.868c-24.653-1.073-27.153-12.506-30.013-12.506
		c-14.805,0-13.219,9.289-13.219,9.289c-8.927-3.774-2.144-23.939-2.144-23.939c12.222-17.053,36.801-28.94,36.801-28.94
		c11.056,0.801,15.016,7.928,15.016,7.928c-3.931-2.858-7.155-0.069-7.155-0.069C244.641,206.942,238.913,222.527,238.913,222.527z
		 M434.292,278.451c-1.146,5.48-26.612-5.688-26.612-5.688s21.206,15.655,14.681,18.404c-4.378,1.848-31.74-8.16-31.74-8.16
		s5.783,7.327,1.208,7.541c-16.298,0.769-51.533-22.248-62.269-34.002c-10.734-11.753-12.528-11.421,21.628-18.309
		c24.121-4.865-27.979-26.988-29.906-28.401c-6.82-4.997,13.68-9.505,40.351-10.021c24.203-0.47,9.712,9.348,9.712,9.348
		c18.919,0.912,30.318,9.345,30.12,12.41c-0.153,2.371-9.636,1.758-9.636,1.758s34.896,12.572,29.06,16.956
		c-4.092,3.072-15.22,2.191-15.22,2.191s30.103,13.056,25.055,17.489c-3.843,3.377-18.276,0.405-18.276,0.405
		S435.629,272.059,434.292,278.451z"/>
</g>
<g display="none">
	<g display="inline">
		<path fill="#FFFFFF" d="M607.387,271.435v84.588l-39.851,43.835V96.999h115.211c49.941,0,74.913,28.179,74.913,78.119v21.404
			c0,49.945-24.972,74.912-74.913,74.912H607.387z M607.387,136.849v91.78h75.36c21.404,0,36.219-10.702,36.219-32.106v-21.404
			c0-21.402-14.814-38.27-36.219-38.27H607.387z"/>
		<path fill="#FFFFFF" d="M971.7,228.629l-41.528,42.806h-87.669v88.573H971.7l-41.528,39.85h-127.52V96.999H971.7l-41.528,43.836
			h-87.669v87.794H971.7z"/>
		<path fill="#FFFFFF" d="M1109.497,271.435h-52.183v84.588l-42.808,43.835V96.999h117.722c49.941,0,74.913,28.179,74.913,78.119
			v21.404c0,44.948-16.694,69.636-50.085,74.056l55.023,129.279h-47.987L1109.497,271.435z M1057.314,140.835v87.794h74.914
			c21.403,0,37.044-10.702,37.044-32.106v-21.404c0-21.402-15.641-34.283-37.044-34.283H1057.314z"/>
		<path fill="#FFFFFF" d="M1421.186,228.629l-40.703,42.806h-87.723v88.573h128.426l-40.703,39.85h-130.533V96.999h171.236
			l-40.703,43.836h-87.723v87.794H1421.186z"/>
		<path fill="#FFFFFF" d="M1504.018,324.944c0,21.404,13.486,35.063,34.889,35.063h42.809c21.402,0,33.883-13.659,33.883-35.063
			v-53.51h-63.76v-42.806h103.611v96.315c0,49.945-23.795,74.913-73.734,74.913h-42.809c-49.945,0-74.738-24.968-74.738-74.913
			V175.118c0-49.94,24.793-78.119,74.738-78.119h117.721l-41.029,39.85h-76.691c-21.402,0-34.889,16.867-34.889,38.27V324.944z"/>
		<path fill="#FFFFFF" d="M1774.998,271.435h-32.756v84.588l-42.807,43.835V96.999h117.721c49.941,0,73.406,28.179,73.406,78.119
			v21.404c0,44.948-34.354,69.636-67.744,74.056l69.25,129.279h-49.324L1774.998,271.435z M1742.242,140.835v87.794h74.914
			c21.404,0,33.557-10.702,33.557-32.106v-21.404c0-21.402-12.152-34.283-33.557-34.283H1742.242z"/>
		<path fill="#FFFFFF" d="M1977.686,96.999v302.858h-42.809V96.999H1977.686z"/>
		<path fill="#FFFFFF" d="M2063.301,96.999l126.139,217.243V96.999h43.834v302.858h-41.551L2065.904,185.82v170.202l-43.836,43.835
			V96.999H2063.301z"/>
		<path fill="#FFFFFF" d="M2448.568,228.629l-39.955,42.806h-88.467v88.573h128.422l-39.955,39.85h-131.275V96.999h171.23
			l-39.955,43.836h-88.467v87.794H2448.568z"/>
	</g>
	<g display="inline">
		<path fill="#FFFFFF" d="M473.178,225.011L258.986,10.819c-9.79-9.787-25.663-9.787-35.45,0L9.343,225.011
			c-9.79,9.79-9.791,25.662,0,35.452l214.19,214.191c9.79,9.791,25.665,9.791,35.453,0l214.192-214.191
			C482.969,250.675,482.969,234.801,473.178,225.011z M134.633,120.394c0,0,3.68,13.324,13.779,19.691
			c-6.722-5.356-0.609-15.038-0.609-15.038s7.794,17.15,14.032,17.929c-7.796-6.234-3.118-10.912,2.338-11.691
			c0.119-0.016,0.78,10.913,22.606,17.929c0,0-2.338-6.237,2.34-9.354c0,0,7.796,4.678,16.563,13.245
			c2.373,2.316,28.736-6.781,40.344-4.67l-3.415,3.615c0,0,11.255,1.758,22.864,7.386c11.606,5.628,18.149,16.463,52.269,21.739
			c0,0-5.458,8.576,21.243,7.455l-1.758,0.702c0,0-66.126,29.546-109.74-8.794c0,0-18.291-16.179-53.463-15.475
			C138.854,165.766,123.638,133.622,134.633,120.394z M311.571,248.429c0,0-18.3-12.809-53.07-0.914
			c-34.789,11.901-66.59,19.583-76.045-7.257c0,0,6.1-4.879,12.81-7.317c0,0,15.861,15.248,41.786,11.892
			c0,0-15.36-11.484-14.03-17.689c0.915-4.271,10.675-9.15,7.32-14.334c0,0,6.1,10.063,4.88,20.435c0,0,16.775-17.69-4.575-38.126
			c0,0,4.27-0.305,10.675,3.355c0,0,24.095,14.944,68.42,5.731c0,0-6.81,2.503,5.085,8.299c11.896,5.795,24.705,14.03,24.096,18.3
			c-0.653,4.568-27.471,1.881-28.876,10.304C309.437,244.768,311.571,248.429,311.571,248.429z M179.676,234.364
			c-8.788-3.717-2.111-23.568-2.111-23.568c12.032-16.785,36.228-28.487,36.228-28.487c10.883,0.786,14.782,7.802,14.782,7.802
			c-3.87-2.813-7.044-0.066-7.044-0.066c19.698,15.127,14.059,30.47,14.059,30.47c-1.56-16.37-11.694-12.474-11.694-12.474
			c5.361,7.046,0.495,9.078-1.558,10.916c-9.208,8.237-0.104,18.574-0.104,18.574c-24.269-1.057-26.729-12.311-29.544-12.311
			C178.114,225.22,179.676,234.364,179.676,234.364z M306.275,258.842l-1.004,5.001l-8.49,2.384l-2.425,7.75l-9.354,3.119
			l-2.338,9.354l-10.858,2.989l-7.073,9.482l-13.252-0.779l-4.678,10.135l-14.744,0.859c0,0-28.616,25.889-40.799,27.086
			c-0.583-3.781-7.388-15.83-7.388-15.83c-5.628,15.127-20.752,16.182-20.752,16.182l-5.276-9.145
			c-8.441,4.217-24.269,6.682-24.269,6.682c2.813-5.275,1.056-8.441,1.056-8.441c-7.386,2.813-25.029,5.215-25.029,5.215
			s1.561-8.577,3.899-13.254c-31.963,11.694-39.018-12.012-39.018-12.012c14.423,2.815,32.56-1.178,49.152-5.916
			c21.826-6.238,40.535-30.402,40.535-30.402c-3.869,0-26.023,2.554-26.023,2.554c16.884-17.589,41.855-30.248,41.855-30.248
			c15.35,42.506,72.149,12.542,96.022,9.145c17.55-2.499,35.876,4.57,35.876,4.57L306.275,258.842z M427.722,275.807
			c-1.129,5.394-26.197-5.602-26.197-5.602s20.876,15.412,14.453,18.118c-4.311,1.819-31.245-8.034-31.245-8.034
			s5.692,7.217,1.189,7.426c-16.044,0.756-50.73-21.9-61.298-33.471c-10.567-11.573-12.333-11.244,21.291-18.024
			c23.745-4.789-27.543-26.568-29.441-27.959c-6.713-4.918,13.468-9.357,39.723-9.863c23.826-0.463,9.561,9.201,9.561,9.201
			c18.625,0.896,29.846,9.199,29.651,12.217c-0.151,2.334-9.486,1.73-9.486,1.73s34.351,12.374,28.606,16.691
			c-4.027,3.025-14.982,2.157-14.982,2.157s29.634,12.852,24.665,17.217c-3.783,3.322-17.992,0.398-17.992,0.398
			S429.04,269.513,427.722,275.807z"/>
	</g>
</g>
<g>
	<g>
		<path fill="#040000" d="M607.387,272.435v84.588l-39.851,43.835V97.999h115.211c49.941,0,74.913,28.179,74.913,78.119v21.404
			c0,49.945-24.972,74.912-74.913,74.912H607.387z M607.387,137.849v91.78h75.36c21.404,0,36.219-10.702,36.219-32.106v-21.404
			c0-21.402-14.814-38.27-36.219-38.27H607.387z"/>
		<path fill="#040000" d="M971.7,229.629l-41.528,42.806h-87.669v88.573H971.7l-41.528,39.85h-127.52V97.999H971.7l-41.528,43.836
			h-87.669v87.794H971.7z"/>
		<path fill="#040000" d="M1109.497,272.435h-52.183v84.588l-42.808,43.835V97.999h117.722c49.941,0,74.913,28.179,74.913,78.119
			v21.404c0,44.948-16.694,69.636-50.085,74.056l55.023,129.279h-47.987L1109.497,272.435z M1057.314,141.835v87.794h74.914
			c21.403,0,37.044-10.702,37.044-32.106v-21.404c0-21.402-15.641-34.283-37.044-34.283H1057.314z"/>
		<path fill="#040000" d="M1421.186,229.629l-40.703,42.806h-87.723v88.573h128.426l-40.703,39.85h-130.533V97.999h171.236
			l-40.703,43.836h-87.723v87.794H1421.186z"/>
		<path fill="#040000" d="M1504.018,325.944c0,21.404,13.486,35.063,34.889,35.063h42.809c21.402,0,33.883-13.659,33.883-35.063
			v-53.51h-63.76v-42.806h103.611v96.315c0,49.945-23.795,74.913-73.734,74.913h-42.809c-49.945,0-74.738-24.968-74.738-74.913
			V176.118c0-49.94,24.793-78.119,74.738-78.119h117.721l-41.029,39.85h-76.691c-21.402,0-34.889,16.867-34.889,38.27V325.944z"/>
		<path fill="#040000" d="M1774.998,272.435h-32.756v84.588l-42.807,43.835V97.999h117.721c49.941,0,73.406,28.179,73.406,78.119
			v21.404c0,44.948-34.354,69.636-67.744,74.056l69.25,129.279h-49.324L1774.998,272.435z M1742.242,141.835v87.794h74.914
			c21.404,0,33.557-10.702,33.557-32.106v-21.404c0-21.402-12.152-34.283-33.557-34.283H1742.242z"/>
		<path fill="#040000" d="M1977.686,97.999v302.858h-42.809V97.999H1977.686z"/>
		<path fill="#040000" d="M2063.301,97.999l126.139,217.243V97.999h43.834v302.858h-41.551L2065.904,186.82v170.202l-43.836,43.835
			V97.999H2063.301z"/>
		<path fill="#040000" d="M2448.568,229.629l-39.955,42.806h-88.467v88.573h128.422l-39.955,39.85h-131.275V97.999h171.23
			l-39.955,43.836h-88.467v87.794H2448.568z"/>
	</g>
	<g>
		<path fill="#040000" d="M473.178,225.011L258.986,10.819c-9.79-9.787-25.663-9.787-35.45,0L9.343,225.011
			c-9.79,9.79-9.791,25.662,0,35.452l214.19,214.191c9.79,9.791,25.665,9.791,35.453,0l214.192-214.191
			C482.969,250.675,482.969,234.801,473.178,225.011z M134.633,120.394c0,0,3.68,13.324,13.779,19.691
			c-6.722-5.356-0.609-15.038-0.609-15.038s7.794,17.15,14.032,17.929c-7.796-6.234-3.118-10.912,2.338-11.691
			c0.119-0.016,0.78,10.913,22.606,17.929c0,0-2.338-6.237,2.34-9.354c0,0,7.796,4.678,16.563,13.245
			c2.373,2.316,28.736-6.781,40.344-4.67l-3.415,3.615c0,0,11.255,1.758,22.864,7.386c11.606,5.628,18.149,16.463,52.269,21.739
			c0,0-5.458,8.576,21.243,7.455l-1.758,0.702c0,0-66.126,29.546-109.74-8.794c0,0-18.291-16.179-53.463-15.475
			C138.854,165.766,123.638,133.622,134.633,120.394z M311.571,248.429c0,0-18.3-12.809-53.07-0.914
			c-34.789,11.901-66.59,19.583-76.045-7.257c0,0,6.1-4.879,12.81-7.317c0,0,15.861,15.248,41.786,11.892
			c0,0-15.36-11.484-14.03-17.689c0.915-4.271,10.675-9.15,7.32-14.334c0,0,6.1,10.063,4.88,20.435c0,0,16.775-17.69-4.575-38.126
			c0,0,4.27-0.305,10.675,3.355c0,0,24.095,14.944,68.42,5.731c0,0-6.81,2.503,5.085,8.299c11.896,5.795,24.705,14.03,24.096,18.3
			c-0.653,4.568-27.471,1.881-28.876,10.304C309.437,244.768,311.571,248.429,311.571,248.429z M179.676,234.364
			c-8.788-3.717-2.111-23.568-2.111-23.568c12.032-16.785,36.228-28.487,36.228-28.487c10.883,0.786,14.782,7.802,14.782,7.802
			c-3.87-2.813-7.044-0.066-7.044-0.066c19.698,15.127,14.059,30.47,14.059,30.47c-1.56-16.37-11.694-12.474-11.694-12.474
			c5.361,7.046,0.495,9.078-1.558,10.916c-9.208,8.237-0.104,18.574-0.104,18.574c-24.269-1.057-26.729-12.311-29.544-12.311
			C178.114,225.22,179.676,234.364,179.676,234.364z M306.275,258.842l-1.004,5.001l-8.49,2.384l-2.425,7.75l-9.354,3.119
			l-2.338,9.354l-10.858,2.989l-7.073,9.482l-13.252-0.779l-4.678,10.135l-14.744,0.859c0,0-28.616,25.889-40.799,27.086
			c-0.583-3.781-7.388-15.83-7.388-15.83c-5.628,15.127-20.752,16.182-20.752,16.182l-5.276-9.145
			c-8.441,4.217-24.269,6.682-24.269,6.682c2.813-5.275,1.056-8.441,1.056-8.441c-7.386,2.813-25.029,5.215-25.029,5.215
			s1.561-8.577,3.899-13.254c-31.963,11.694-39.018-12.012-39.018-12.012c14.423,2.815,32.56-1.178,49.152-5.916
			c21.826-6.238,40.535-30.402,40.535-30.402c-3.869,0-26.023,2.554-26.023,2.554c16.884-17.589,41.855-30.248,41.855-30.248
			c15.35,42.506,72.149,12.542,96.022,9.145c17.55-2.499,35.876,4.57,35.876,4.57L306.275,258.842z M427.722,275.807
			c-1.129,5.394-26.197-5.602-26.197-5.602s20.876,15.412,14.453,18.118c-4.311,1.819-31.245-8.034-31.245-8.034
			s5.692,7.217,1.189,7.426c-16.044,0.756-50.73-21.9-61.298-33.471c-10.567-11.573-12.333-11.244,21.291-18.024
			c23.745-4.789-27.543-26.568-29.441-27.959c-6.713-4.918,13.468-9.357,39.723-9.863c23.826-0.463,9.561,9.201,9.561,9.201
			c18.625,0.896,29.846,9.199,29.651,12.217c-0.151,2.334-9.486,1.73-9.486,1.73s34.351,12.374,28.606,16.691
			c-4.027,3.025-14.982,2.157-14.982,2.157s29.634,12.852,24.665,17.217c-3.783,3.322-17.992,0.398-17.992,0.398
			S429.04,269.513,427.722,275.807z"/>
	</g>
</g>
</svg>
