<?xml version="1.0" encoding="UTF-8" standalone="no"?>
<svg
   xmlns:dc="http://purl.org/dc/elements/1.1/"
   xmlns:cc="http://creativecommons.org/ns#"
   xmlns:rdf="http://www.w3.org/1999/02/22-rdf-syntax-ns#"
   xmlns:svg="http://www.w3.org/2000/svg"
   xmlns="http://www.w3.org/2000/svg"
   viewBox="0 0 353 280"
   height="280"
   width="353"
   xml:space="preserve"
   id="svg2"
   version="1.1"><metadata
     id="metadata8"><rdf:RDF><cc:Work
         rdf:about=""><dc:format>image/svg+xml</dc:format><dc:type
           rdf:resource="http://purl.org/dc/dcmitype/StillImage" /></cc:Work></rdf:RDF></metadata><defs
     id="defs6"><clipPath
       id="clipPath50"
       clipPathUnits="userSpaceOnUse"><path
         id="path48"
         d="M 0,0 V 3771 H 2647 V 0 Z" /></clipPath><clipPath
       id="clipPath56"
       clipPathUnits="userSpaceOnUse"><path
         id="path54"
         d="m 1050.42,2496.59 -0.12,743.88 715.36,-373.24 z m 1570.63,872.75 c 0,0 -25.87,182.43 -105.25,262.78 -100.67,105.44 -213.52,105.97 -265.27,112.14 -370.48,26.78 -926.21,26.78 -926.21,26.78 h -1.15 c 0,0 -555.725,0 -926.217,-26.78 -51.754,-6.17 -164.558,-6.7 -265.269,-112.14 C 52.3086,3551.77 26.4766,3369.34 26.4766,3369.34 26.4766,3369.34 0,3155.09 0,2940.85 v -200.86 c 0,-214.24 26.4766,-428.48 26.4766,-428.48 0,0 25.832,-182.45 105.2074,-262.79 100.711,-105.44 233.004,-102.11 291.921,-113.16 211.805,-20.31 900.145,-26.6 900.145,-26.6 0,0 556.3,0.84 926.78,27.62 51.75,6.18 164.6,6.7 265.27,112.14 79.38,80.34 105.25,262.79 105.25,262.79 0,0 26.44,214.24 26.44,428.48 v 200.86 c 0,214.24 -26.44,428.49 -26.44,428.49 z" /></clipPath><linearGradient
       id="linearGradient62"
       spreadMethod="pad"
       gradientTransform="matrix(1e-7,-1862.08,-1862.08,-1e-7,1323.74,3771.04)"
       gradientUnits="userSpaceOnUse"
       y2="0"
       x2="1"
       y1="0"
       x1="0"><stop
         id="stop58"
         offset="0"
         style="stop-opacity:1;stop-color:#e62426" /><stop
         id="stop60"
         offset="1"
         style="stop-opacity:1;stop-color:#c01e25" /></linearGradient></defs><g
     transform="matrix(1.3333333,0,0,-1.3333333,0,502.8)"
     id="g10"><g
       transform="scale(0.1)"
       id="g12"><path
         id="path14"
         style="fill:#54bf36;fill-opacity:1;fill-rule:nonzero;stroke:none"
         d="m 819.883,60.8789 c 1.769,-1.4101 3.687,-2.6601 5.769,-3.75 2.071,-1.0976 4.207,-2.0469 6.407,-2.8398 2.199,-0.7891 4.41,-1.3907 6.636,-1.7891 2.231,-0.3984 4.352,-0.5898 6.364,-0.5898 13.914,0 20.879,5.2187 20.879,15.6484 0,2.3828 -0.497,4.4414 -1.465,6.1797 -0.985,1.7422 -2.383,3.332 -4.215,4.7734 -1.832,1.418 -4.028,2.75 -6.594,3.9766 -2.562,1.2109 -5.465,2.5 -8.695,3.8437 -4.336,1.7696 -8.059,3.5664 -11.172,5.3985 -3.109,1.8398 -5.672,3.8398 -7.692,6 -2.011,2.1601 -3.507,4.5505 -4.488,7.1405 -0.972,2.59 -1.465,5.539 -1.465,8.828 0,4.153 0.907,7.84 2.707,11.09 1.797,3.231 4.223,5.973 7.278,8.231 3.051,2.261 6.574,3.98 10.574,5.179 3.992,1.192 8.191,1.781 12.59,1.781 8.113,0 15.191,-1.519 21.238,-4.582 v -12.347 c -7.019,4.508 -14.59,6.769 -22.703,6.769 -2.934,0 -5.602,-0.371 -8.016,-1.101 -2.41,-0.727 -4.465,-1.77 -6.175,-3.11 -1.707,-1.339 -3.036,-2.937 -3.985,-4.808 -0.945,-1.86 -1.418,-3.922 -1.418,-6.18 0,-2.312 0.363,-4.34 1.098,-6.082 0.73,-1.738 1.879,-3.309 3.437,-4.719 1.551,-1.41 3.567,-2.738 6.039,-4.0309 2.469,-1.2774 5.477,-2.6485 9.02,-4.1094 4.516,-1.8399 8.422,-3.6602 11.719,-5.4492 3.293,-1.8086 6.008,-3.7617 8.148,-5.8594 2.133,-2.1094 3.719,-4.4727 4.762,-7.0508 1.035,-2.6015 1.551,-5.6094 1.551,-9.0312 0,-4.211 -0.868,-7.961 -2.61,-11.2578 -1.734,-3.293 -4.148,-6.0704 -7.23,-8.3321 -3.078,-2.25 -6.699,-3.9609 -10.848,-5.1172 -4.152,-1.1718 -8.668,-1.7422 -13.551,-1.7422 -9.461,0 -17.425,1.9805 -23.894,5.9415 v 13.0976" /><path
         id="path16"
         style="fill:#54bf36;fill-opacity:1;fill-rule:nonzero;stroke:none"
         d="m 962.613,99.0508 c -0.183,9.7692 -2.504,17.3402 -6.961,22.7112 -4.453,5.367 -10.648,8.058 -18.586,8.058 -3.961,0 -7.64,-0.711 -11.027,-2.101 -3.391,-1.41 -6.363,-3.438 -8.926,-6.098 -2.562,-2.652 -4.687,-5.891 -6.363,-9.691 -1.68,-3.821 -2.855,-8.11 -3.523,-12.8792 z m -55.664,-10.25 c 0.063,-5.7305 0.824,-10.8906 2.285,-15.4688 1.465,-4.582 3.579,-8.4609 6.321,-11.6328 2.746,-3.1679 6.09,-5.5898 10.023,-7.2695 3.938,-1.6797 8.379,-2.5195 13.32,-2.5195 10.563,0 20.54,3.6914 29.938,11.082 v -11.543 c -8.969,-6.4101 -19.832,-9.6094 -32.586,-9.6094 -6.289,0 -12,1.1016 -17.125,3.2891 -5.129,2.2109 -9.492,5.3906 -13.094,9.5703 -3.601,4.1797 -6.375,9.3321 -8.328,15.4297 -1.953,6.1016 -2.93,13.0625 -2.93,20.8711 0,7.0195 1.067,13.52 3.204,19.5 2.132,5.992 5.097,11.148 8.882,15.52 3.786,4.359 8.266,7.781 13.457,10.25 5.184,2.468 10.864,3.71 17.028,3.71 6.043,0 11.386,-1.05 16.023,-3.148 4.641,-2.113 8.528,-5.121 11.668,-9.031 3.149,-3.903 5.543,-8.66 7.192,-14.27 1.648,-5.621 2.468,-11.91 2.468,-18.8708 v -5.8594 h -67.746" /><path
         id="path18"
         style="fill:#54bf36;fill-opacity:1;fill-rule:nonzero;stroke:none"
         d="m 1058.93,99.0508 c -0.19,9.7692 -2.51,17.3402 -6.96,22.7112 -4.46,5.367 -10.65,8.058 -18.59,8.058 -3.96,0 -7.64,-0.711 -11.03,-2.101 -3.39,-1.41 -6.36,-3.438 -8.92,-6.098 -2.57,-2.652 -4.69,-5.891 -6.37,-9.691 -1.68,-3.821 -2.85,-8.11 -3.52,-12.8792 z m -55.67,-10.25 c 0.06,-5.7305 0.83,-10.8906 2.29,-15.4688 1.46,-4.582 3.57,-8.4609 6.32,-11.6328 2.74,-3.1679 6.09,-5.5898 10.02,-7.2695 3.94,-1.6797 8.38,-2.5195 13.32,-2.5195 10.56,0 20.54,3.6914 29.94,11.082 v -11.543 c -8.97,-6.4101 -19.83,-9.6094 -32.59,-9.6094 -6.29,0 -12,1.1016 -17.12,3.2891 -5.13,2.2109 -9.49,5.3906 -13.09,9.5703 -3.608,4.1797 -6.381,9.3321 -8.334,15.4297 -1.953,6.1016 -2.93,13.0625 -2.93,20.8711 0,7.0195 1.066,13.52 3.203,19.5 2.137,5.992 5.098,11.148 8.881,15.52 3.79,4.359 8.27,7.781 13.46,10.25 5.18,2.468 10.86,3.71 17.03,3.71 6.04,0 11.38,-1.05 16.02,-3.148 4.64,-2.113 8.53,-5.121 11.67,-9.031 3.15,-3.903 5.54,-8.66 7.19,-14.27 1.65,-5.621 2.47,-11.91 2.47,-18.8708 v -5.8594 h -67.75" /><path
         id="path20"
         style="fill:#54bf36;fill-opacity:1;fill-rule:nonzero;stroke:none"
         d="m 1149.2,44.0313 -43.12,45.6875 h -0.37 V 44.0313 h -11.72 V 182.82 h 11.72 V 94.1094 h 0.37 L 1147,137.781 h 15.29 l -43.94,-45.3201 47.42,-48.4296 h -16.57" /><path
         id="path22"
         style="fill:#54bf36;fill-opacity:1;fill-rule:nonzero;stroke:none"
         d="m 1182.16,44.0313 h 11.7188 v 138.789 H 1182.16 Z" /><path
         id="path24"
         style="fill:#54bf36;fill-opacity:1;fill-rule:nonzero;stroke:none"
         d="m 1263.37,129.82 c -5.13,0 -9.77,-0.879 -13.92,-2.66 -4.15,-1.769 -7.7,-4.351 -10.66,-7.73 -2.97,-3.391 -5.24,-7.539 -6.83,-12.461 -1.58,-4.91 -2.38,-10.469 -2.38,-16.6995 0,-5.8593 0.8,-11.1406 2.38,-15.8398 1.59,-4.6992 3.83,-8.7305 6.73,-12.0781 2.9,-3.3594 6.43,-5.9414 10.58,-7.7422 4.15,-1.8086 8.78,-2.6992 13.91,-2.6992 5.25,0 9.88,0.8711 13.92,2.6015 4.03,1.75 7.44,4.2774 10.25,7.6094 2.8,3.3203 4.93,7.3906 6.37,12.2187 1.42,4.8204 2.15,10.3086 2.15,16.4805 0,12.6287 -2.82,22.2887 -8.43,28.9807 -5.62,6.679 -13.63,10.019 -24.07,10.019 z m -0.92,-87.9802 c -6.96,0 -13.2,1.1602 -18.72,3.4688 -5.53,2.332 -10.25,5.6133 -14.15,9.8516 -3.91,4.2382 -6.9,9.3203 -8.97,15.2382 -2.08,5.9219 -3.11,12.4805 -3.11,19.6914 0,7.8086 1.09,14.7892 3.29,20.9612 2.2,6.168 5.33,11.398 9.38,15.699 4.07,4.309 8.96,7.59 14.7,9.84 5.73,2.262 12.15,3.39 19.23,3.39 6.78,0 12.87,-1.109 18.31,-3.339 5.43,-2.219 10.04,-5.45 13.82,-9.661 3.79,-4.21 6.69,-9.332 8.7,-15.378 2.01,-6.043 3.02,-12.9106 3.02,-20.602 0,-7.3281 -1.05,-14 -3.16,-20 -2.11,-6.0195 -5.11,-11.1797 -9.01,-15.5195 -3.92,-4.3399 -8.67,-7.6992 -14.29,-10.0703 -5.61,-2.3789 -11.96,-3.5704 -19.04,-3.5704" /><path
         id="path26"
         style="fill:#54bf36;fill-opacity:1;fill-rule:nonzero;stroke:none"
         d="m 1397.3,100.98 c 0,3.899 -0.7,7.602 -2.11,11.079 -1.39,3.48 -3.35,6.531 -5.86,9.152 -2.5,2.629 -5.47,4.719 -8.92,6.269 -3.45,1.559 -7.25,2.34 -11.4,2.34 -4.88,0 -9.29,-0.949 -13.22,-2.84 -3.95,-1.89 -7.3,-4.582 -10.08,-8.05 -2.77,-3.489 -4.91,-7.711 -6.41,-12.692 -1.49,-4.968 -2.24,-10.5583 -2.24,-16.7888 0,-5.75 0.7,-10.9297 2.11,-15.5703 1.4,-4.6367 3.39,-8.5781 5.95,-11.8086 2.56,-3.2305 5.66,-5.7383 9.29,-7.5117 3.64,-1.7695 7.68,-2.6484 12.13,-2.6484 4.64,0 8.85,0.8398 12.64,2.5195 3.78,1.6797 7.02,3.9922 9.7,6.9609 2.69,2.961 4.76,6.4297 6.23,10.4297 1.46,4 2.19,8.3203 2.19,12.961 z m 11.72,-49.7105 c 0,-17.3984 -3.95,-30.289 -11.85,-38.6797 C 1389.27,4.19141 1377.07,0 1360.59,0 c -10.25,0 -19.96,2.28906 -29.11,6.87109 V 18.7617 c 10.19,-5.6719 19.9,-8.5 29.11,-8.5 24.48,0 36.71,12.9375 36.71,38.8086 v 11.2578 h -0.36 C 1389.73,48 1378.75,41.8398 1363.98,41.8398 c -5.8,0 -11.09,1.0586 -15.89,3.1993 -4.79,2.1406 -8.89,5.2304 -12.31,9.25 -3.42,4.0195 -6.07,8.9218 -7.97,14.7031 -1.88,5.7578 -2.83,12.2695 -2.83,19.5391 0,7.6875 1,14.6877 3.02,21.0077 2.02,6.32 4.88,11.731 8.6,16.25 3.73,4.512 8.23,8.012 13.51,10.481 5.28,2.468 11.22,3.71 17.81,3.71 13.24,0 22.92,-5.371 29.02,-16.109 h 0.36 v 13.91 h 11.72 V 51.2695" /><path
         id="path28"
         style="fill:#54bf36;fill-opacity:1;fill-rule:nonzero;stroke:none"
         d="m 1478.51,129.82 c -5.12,0 -9.76,-0.879 -13.91,-2.66 -4.15,-1.769 -7.71,-4.351 -10.67,-7.73 -2.97,-3.391 -5.23,-7.539 -6.82,-12.461 -1.58,-4.91 -2.39,-10.469 -2.39,-16.6995 0,-5.8593 0.81,-11.1406 2.39,-15.8398 1.59,-4.6992 3.83,-8.7305 6.73,-12.0781 2.9,-3.3594 6.42,-5.9414 10.57,-7.7422 4.15,-1.8086 8.79,-2.6992 13.92,-2.6992 5.24,0 9.88,0.8711 13.91,2.6015 4.04,1.75 7.45,4.2774 10.26,7.6094 2.8,3.3203 4.93,7.3906 6.37,12.2187 1.42,4.8204 2.14,10.3086 2.14,16.4805 0,12.6287 -2.81,22.2887 -8.42,28.9807 -5.62,6.679 -13.64,10.019 -24.08,10.019 z m -0.91,-87.9802 c -6.97,0 -13.21,1.1602 -18.72,3.4688 -5.53,2.332 -10.25,5.6133 -14.16,9.8516 -3.9,4.2382 -6.89,9.3203 -8.96,15.2382 -2.08,5.9219 -3.12,12.4805 -3.12,19.6914 0,7.8086 1.1,14.7892 3.3,20.9612 2.19,6.168 5.33,11.398 9.38,15.699 4.06,4.309 8.96,7.59 14.7,9.84 5.73,2.262 12.15,3.39 19.23,3.39 6.77,0 12.87,-1.109 18.31,-3.339 5.43,-2.219 10.04,-5.45 13.82,-9.661 3.78,-4.21 6.68,-9.332 8.7,-15.378 2.01,-6.043 3.01,-12.9106 3.01,-20.602 0,-7.3281 -1.04,-14 -3.15,-20 -2.11,-6.0195 -5.12,-11.1797 -9.01,-15.5195 -3.92,-4.3399 -8.68,-7.6992 -14.29,-10.0703 -5.62,-2.3789 -11.96,-3.5704 -19.04,-3.5704" /><path
         id="path30"
         style="fill:#54bf36;fill-opacity:1;fill-rule:nonzero;stroke:none"
         d="m 1552.12,42.1992 c -2.44,0 -4.52,0.8594 -6.23,2.5703 -1.71,1.711 -2.56,3.7813 -2.56,6.2188 0,2.5117 0.84,4.6133 2.52,6.3203 1.68,1.7109 3.77,2.5625 6.27,2.5625 1.22,0 2.36,-0.2305 3.43,-0.6797 1.07,-0.4609 2,-1.0703 2.8,-1.832 0.79,-0.7696 1.42,-1.6875 1.91,-2.8008 0.49,-1.0898 0.73,-2.2773 0.73,-3.5703 0,-1.2188 -0.24,-2.3672 -0.73,-3.4297 -0.49,-1.0586 -1.12,-2 -1.91,-2.7891 -0.8,-0.789 -1.73,-1.4179 -2.8,-1.8789 -1.07,-0.4609 -2.21,-0.6914 -3.43,-0.6914" /><path
         id="path32"
         style="fill:#54bf36;fill-opacity:1;fill-rule:nonzero;stroke:none"
         d="m 1651.09,44.0313 v 54.0195 c 0,21.1792 -7.68,31.7692 -23.07,31.7692 -4.09,0 -7.88,-0.808 -11.35,-2.429 -3.48,-1.621 -6.49,-3.852 -9.02,-6.719 -2.53,-2.883 -4.52,-6.274 -5.95,-10.211 -1.44,-3.941 -2.15,-8.199 -2.15,-12.7696 V 44.0313 h -11.72 v 93.7497 h 11.72 v -16.289 h 0.36 c 6.96,12.328 17.43,18.488 31.41,18.488 10.25,0 18.06,-3.332 23.43,-9.98 5.38,-6.648 8.06,-16.27 8.06,-28.84 V 44.0313 h -11.72" /><path
         id="path34"
         style="fill:#54bf36;fill-opacity:1;fill-rule:nonzero;stroke:none"
         d="m 1752.25,99.0508 c -0.18,9.7692 -2.51,17.3402 -6.96,22.7112 -4.45,5.367 -10.64,8.058 -18.58,8.058 -3.97,0 -7.65,-0.711 -11.04,-2.101 -3.38,-1.41 -6.36,-3.438 -8.92,-6.098 -2.56,-2.652 -4.68,-5.891 -6.36,-9.691 -1.68,-3.821 -2.85,-8.11 -3.53,-12.8792 z m -55.66,-10.25 c 0.06,-5.7305 0.82,-10.8906 2.29,-15.4688 1.46,-4.582 3.57,-8.4609 6.31,-11.6328 2.75,-3.1679 6.09,-5.5898 10.03,-7.2695 3.94,-1.6797 8.37,-2.5195 13.32,-2.5195 10.56,0 20.54,3.6914 29.93,11.082 v -11.543 c -8.96,-6.4101 -19.83,-9.6094 -32.58,-9.6094 -6.29,0 -12,1.1016 -17.12,3.2891 -5.13,2.2109 -9.49,5.3906 -13.1,9.5703 -3.6,4.1797 -6.37,9.3321 -8.33,15.4297 -1.95,6.1016 -2.93,13.0625 -2.93,20.8711 0,7.0195 1.07,13.52 3.21,19.5 2.13,5.992 5.09,11.148 8.87,15.52 3.79,4.359 8.27,7.781 13.47,10.25 5.18,2.468 10.86,3.71 17.02,3.71 6.05,0 11.39,-1.05 16.03,-3.148 4.63,-2.113 8.52,-5.121 11.67,-9.031 3.14,-3.903 5.53,-8.66 7.18,-14.27 1.65,-5.621 2.47,-11.91 2.47,-18.8708 v -5.8594 h -67.74" /><path
         id="path36"
         style="fill:#54bf36;fill-opacity:1;fill-rule:nonzero;stroke:none"
         d="m 1827.61,45.1289 c -4.04,-2.0078 -8.43,-3.0195 -13.19,-3.0195 -15.13,0 -22.7,8.7304 -22.7,26.1797 v 59.2419 h -16.49 v 10.25 h 16.49 v 23.629 l 11.72,3.84 v -27.469 h 24.17 v -10.25 h -24.17 V 70.1289 c 0,-6.3476 1.03,-10.9297 3.11,-13.7305 2.07,-2.8086 5.59,-4.2187 10.53,-4.2187 3.66,0 7.17,1.1016 10.53,3.3008 V 45.1289" /><path
         id="path38"
         style="fill:#ffffff;fill-opacity:1;fill-rule:nonzero;stroke:none"
         d="m 1050.3,2496.6 715.36,370.63 -715.36,373.24 V 2496.6" /><path
         id="path40"
         style="fill:#eae0e1;fill-opacity:1;fill-rule:nonzero;stroke:none"
         d="m 1677.65,2821.55 -0.07,0.05 88.08,45.63 -88.01,-45.68" /><path
         id="path42"
         style="fill:#eae0e1;fill-opacity:1;fill-rule:nonzero;stroke:none"
         d="m 1677.58,2821.6 -627.28,418.87 715.36,-373.24 -88.08,-45.63" /><g
         id="g44"><g
           clip-path="url(#clipPath50)"
           id="g46"><g
             clip-path="url(#clipPath56)"
             id="g52"><path
               id="path64"
               style="fill:url(#linearGradient62);fill-opacity:1;fill-rule:nonzero;stroke:none"
               d="m 1319,1908 v 1 h -87 v 1 h -72 v 1 h -64 v 1 h -58 v 1 h -53 v 1 h -49 v 1 h -45 v 1 h -42 v 1 h -40 v 1 h -36 v 1 h -34 v 1 h -32 v 1 h -30 v 1 h -28 v 1 h -26 v 1 h -25 v 1 h -23 v 1 h -21 v 1 h -20 v 1 h -19 v 1 h -17 v 1 h -16 v 1 h -15 v 1 h -13 v 1 h -13 v 1 h -12 v 1 h -8 v 1 h -7 v 1 h -7 v 1 h -7 v 1 h -8 v 1 h -9 v 1 h -8 v 1 h -8 v 1 h -7 v 1 h -7 v 1 h -7 v 1 h -6 v 1 h -6 v 1 h -6 v 1 h -5 v 1 h -5 v 1 h -5 v 1 h -4 v 1 h -5 v 1 h -4 v 1 h -4 v 1 h -4 v 1 h -4 v 1 h -3 v 1 h -4 v 1 h -3 v 1 h -4 v 1 h -3 v 1 h -3 v 1 h -3 v 1 h -3 v 1 h -2 v 1 h -3 v 1 h -3 v 1 h -3 v 1 h -2 v 1 h -3 v 1 h -2 v 1 h -3 v 1 h -2 v 1 h -3 v 1 h -2 v 1 h -2 v 1 h -2 v 1 h -2 v 1 h -3 v 1 h -2 v 1 h -2 v 1 h -2 v 1 h -2 v 1 h -2 v 1 h -2 v 1 h -2 v 1 h -2 v 1 h -1 v 1 h -2 v 1 h -2 v 1 h -1 v 1 h -2 v 1 h -2 v 1 h -2 v 1 h -1 v 1 h -2 v 1 h -2 v 1 h -1 v 1 h -2 v 1 h -1 v 1 h -2 v 1 h -1 v 1 h -2 v 1 h -1 v 1 h -2 v 1 h -1 v 1 h -1 v 1 h -2 v 1 h -1 v 1 h -2 v 1 h -1 v 1 h -2 v 1 h -1 v 1 h -1 v 1 h -1 v 1 h -2 v 1 h -1 v 1 h -1 v 1 h -1 v 1 h -2 v 1 h -1 v 1 h -1 v 1 h -1 v 1 h -1 v 1 h -2 v 1 h -1 v 1 h -1 v 1 h -1 v 1 h -1 v 1 h -2 v 1 h -1 v 1 h -1 v 1 h -1 v 1 h -1 v 1 h -1 v 1 h -1 v 1 h -1 v 1 h -1 v 1 h -1 v 1 h -1 v 1 h -1 v 1 h -1 v 1 h -1 v 1 h -1 v 1 h -1 v 1 h -1 v 1 h -1 v 1 h -1 v 1 h -1 v 1 h -1 v 1 h -1 v 1 h -1 v 1 h -1 v 1 h -1 v 2 h -1 v 1 h -1 v 1 h -1 v 1 h -1 v 1 h -1 v 2 h -1 v 1 h -1 v 1 h -1 v 1 h -1 v 2 h -1 v 1 h -1 v 2 h -1 v 1 h -1 v 1 h -1 v 2 h -1 v 1 h -1 v 2 h -1 v 1 h -1 v 1 h -1 v 2 h -1 v 1 h -1 v 2 h -1 v 2 h -1 v 1 h -1 v 2 h -1 v 2 h -1 v 1 h -1 v 2 h -1 v 1 h -1 v 2 h -1 v 2 h -1 v 1 h -1 v 2 h -1 v 2 h -1 v 2 h -1 v 2 h -1 v 2 h -1 v 2 h -1 v 2 h -1 v 2 h -1 v 2 h -1 v 2 h -1 v 2 h -1 v 2 h -1 v 2 h -1 v 2 h -1 v 3 h -1 v 2 h -1 v 2 h -1 v 2 h -1 v 3 h -1 v 2 h -1 v 2 h -1 v 3 h -1 v 2 h -1 v 3 h -1 v 2 h -1 v 3 h -1 v 2 h -1 v 3 h -1 v 2 h -1 v 3 h -1 v 3 h -1 v 3 h -1 v 3 h -1 v 3 h -1 v 3 h -1 v 2 h -1 v 3 h -1 v 3 h -1 v 4 h -1 v 3 h -1 v 3 h -1 v 3 h -1 v 4 h -1 v 3 h -1 v 3 h -1 v 4 h -1 v 4 h -1 v 3 h -1 v 4 h -1 v 4 h -1 v 4 h -1 v 3 h -1 v 4 h -1 v 4 h -1 v 5 h -1 v 4 h -1 v 4 h -1 v 5 h -1 v 5 h -1 v 4 h -1 v 5 h -1 v 5 h -1 v 5 h -1 v 6 h -1 v 6 h -1 v 6 h -1 v 7 h -1 v 9 h -1 v 9 h -1 v 9 h -1 v 9 h -1 v 10 h -1 v 10 h -1 v 10 h -1 v 10 h -1 v 11 h -1 v 11 h -1 v 11 h -1 v 12 h -1 v 12 h -1 v 13 h -1 v 12 h -1 v 14 H 9 v 14 H 8 v 15 H 7 v 16 H 6 v 16 H 5 v 18 H 4 v 19 H 3 v 23 H 2 v 26 H 1 v 32 H 0 v 349 h 1 v 32 h 1 v 26 h 1 v 23 h 1 v 19 h 1 v 18 h 1 v 16 h 1 v 16 h 1 v 15 h 1 v 14 h 1 v 14 h 1 v 12 h 1 v 13 h 1 v 12 h 1 v 11 h 1 v 12 h 1 v 11 h 1 v 11 h 1 v 10 h 1 v 10 h 1 v 10 h 1 v 10 h 1 v 9 h 1 v 9 h 1 v 9 h 1 v 9 h 1 v 7 h 1 v 6 h 1 v 6 h 1 v 5 h 1 v 6 h 1 v 5 h 1 v 5 h 1 v 4 h 1 v 5 h 1 v 4 h 1 v 5 h 1 v 4 h 1 v 4 h 1 v 4 h 1 v 4 h 1 v 4 h 1 v 4 h 1 v 4 h 1 v 4 h 1 v 3 h 1 v 4 h 1 v 3 h 1 v 4 h 1 v 3 h 1 v 4 h 1 v 3 h 1 v 3 h 1 v 3 h 1 v 3 h 1 v 4 h 1 v 2 h 1 v 3 h 1 v 3 h 1 v 3 h 1 v 3 h 1 v 3 h 1 v 3 h 1 v 2 h 1 v 3 h 1 v 2 h 1 v 3 h 1 v 3 h 1 v 2 h 1 v 3 h 1 v 2 h 1 v 3 h 1 v 2 h 1 v 2 h 1 v 3 h 1 v 2 h 1 v 2 h 1 v 2 h 1 v 2 h 1 v 3 h 1 v 2 h 1 v 2 h 1 v 2 h 1 v 2 h 1 v 2 h 1 v 2 h 1 v 2 h 1 v 2 h 1 v 2 h 1 v 2 h 1 v 2 h 1 v 2 h 1 v 1 h 1 v 2 h 1 v 2 h 1 v 1 h 1 v 2 h 1 v 2 h 1 v 1 h 1 v 2 h 1 v 2 h 1 v 1 h 1 v 2 h 1 v 2 h 1 v 1 h 1 v 2 h 1 v 1 h 1 v 1 h 1 v 2 h 1 v 1 h 1 v 1 h 1 v 2 h 1 v 1 h 1 v 2 h 1 v 1 h 1 v 1 h 1 v 2 h 1 v 1 h 1 v 1 h 1 v 1 h 1 v 2 h 1 v 1 h 1 v 1 h 1 v 1 h 1 v 1 h 1 v 2 h 1 v 1 h 1 v 1 h 1 v 1 h 1 v 1 h 1 v 1 h 1 v 1 h 1 v 1 h 1 v 1 h 1 v 1 h 1 v 1 h 1 v 1 h 1 v 1 h 1 v 1 h 1 v 1 h 1 v 1 h 1 v 1 h 1 v 1 h 1 v 1 h 1 v 1 h 1 v 1 h 1 v 1 h 1 v 1 h 1 v 1 h 1 v 1 h 2 v 1 h 1 v 1 h 1 v 1 h 1 v 1 h 1 v 1 h 1 v 1 h 2 v 1 h 1 v 1 h 1 v 1 h 1 v 1 h 1 v 1 h 2 v 1 h 1 v 1 h 1 v 1 h 1 v 1 h 1 v 1 h 1 v 1 h 2 v 1 h 1 v 1 h 2 v 1 h 1 v 1 h 1 v 1 h 2 v 1 h 1 v 1 h 1 v 1 h 2 v 1 h 1 v 1 h 1 v 1 h 2 v 1 h 1 v 1 h 2 v 1 h 1 v 1 h 2 v 1 h 1 v 1 h 2 v 1 h 1 v 1 h 2 v 1 h 2 v 1 h 1 v 1 h 2 v 1 h 1 v 1 h 2 v 1 h 1 v 1 h 2 v 1 h 2 v 1 h 2 v 1 h 2 v 1 h 2 v 1 h 1 v 1 h 2 v 1 h 2 v 1 h 2 v 1 h 2 v 1 h 2 v 1 h 2 v 1 h 2 v 1 h 2 v 1 h 2 v 1 h 3 v 1 h 2 v 1 h 2 v 1 h 2 v 1 h 2 v 1 h 3 v 1 h 3 v 1 h 2 v 1 h 3 v 1 h 2 v 1 h 3 v 1 h 3 v 1 h 3 v 1 h 3 v 1 h 3 v 1 h 3 v 1 h 3 v 1 h 3 v 1 h 4 v 1 h 4 v 1 h 3 v 1 h 4 v 1 h 4 v 1 h 5 v 1 h 4 v 1 h 5 v 1 h 6 v 1 h 5 v 1 h 6 v 1 h 7 v 1 h 7 v 1 h 8 v 1 h 9 v 1 h 9 v 1 h 11 v 1 h 9 v 1 h 13 v 1 h 15 v 1 h 15 v 1 h 16 v 1 h 15 v 1 h 18 v 1 h 17 v 1 h 19 v 1 h 19 v 1 h 20 v 1 h 21 v 1 h 22 v 1 h 24 v 1 h 24 v 1 h 26 v 1 h 27 v 1 h 29 v 1 h 31 v 1 h 33 v 1 h 36 v 1 h 39 v 1 h 42 v 1 h 47 v 1 h 54 v 1 h 64 v 1 h 81 v 1 h 326 v -1 h 80 v -1 h 64 v -1 h 54 v -1 h 47 v -1 h 43 v -1 h 39 v -1 h 35 v -1 h 34 v -1 h 31 v -1 h 28 v -1 h 28 v -1 h 26 v -1 h 24 v -1 h 23 v -1 h 22 v -1 h 21 v -1 h 21 v -1 h 19 v -1 h 18 v -1 h 18 v -1 h 17 v -1 h 16 v -1 h 16 v -1 h 15 v -1 h 15 v -1 h 12 v -1 h 10 v -1 h 10 v -1 h 10 v -1 h 9 v -1 h 8 v -1 h 7 v -1 h 7 v -1 h 5 v -1 h 6 v -1 h 5 v -1 h 5 v -1 h 5 v -1 h 4 v -1 h 4 v -1 h 4 v -1 h 4 v -1 h 3 v -1 h 4 v -1 h 4 v -1 h 3 v -1 h 3 v -1 h 3 v -1 h 3 v -1 h 3 v -1 h 3 v -1 h 2 v -1 h 3 v -1 h 2 v -1 h 3 v -1 h 2 v -1 h 3 v -1 h 2 v -1 h 3 v -1 h 2 v -1 h 2 v -1 h 2 v -1 h 2 v -1 h 2 v -1 h 3 v -1 h 2 v -1 h 2 v -1 h 2 v -1 h 1 v -1 h 2 v -1 h 2 v -1 h 2 v -1 h 2 v -1 h 2 v -1 h 1 v -1 h 2 v -1 h 2 v -1 h 2 v -1 h 1 v -1 h 2 v -1 h 1 v -1 h 2 v -1 h 2 v -1 h 1 v -1 h 2 v -1 h 1 v -1 h 2 v -1 h 1 v -1 h 2 v -1 h 1 v -1 h 2 v -1 h 1 v -1 h 1 v -1 h 2 v -1 h 1 v -1 h 2 v -1 h 1 v -1 h 1 v -1 h 2 v -1 h 1 v -1 h 1 v -1 h 2 v -1 h 1 v -1 h 1 v -1 h 1 v -1 h 2 v -1 h 1 v -1 h 1 v -1 h 1 v -1 h 1 v -1 h 1 v -1 h 2 v -1 h 1 v -1 h 1 v -1 h 1 v -1 h 1 v -1 h 2 v -1 h 1 v -1 h 1 v -1 h 1 v -1 h 1 v -1 h 1 v -1 h 1 v -1 h 1 v -1 h 1 v -1 h 1 v -1 h 1 v -1 h 1 v -1 h 1 v -1 h 1 v -1 h 2 v -1 h 1 v -1 h 1 v -1 h 1 v -1 h 1 v -1 h 1 v -2 h 1 v -1 h 1 v -1 h 1 v -1 h 1 v -1 h 1 v -1 h 1 v -1 h 1 v -1 h 1 v -1 h 1 v -1 h 1 v -2 h 1 v -1 h 1 v -1 h 1 v -1 h 1 v -1 h 1 v -2 h 1 v -1 h 1 v -1 h 1 v -2 h 1 v -1 h 1 v -1 h 1 v -2 h 1 v -1 h 1 v -2 h 1 v -1 h 1 v -1 h 1 v -2 h 1 v -1 h 1 v -2 h 1 v -1 h 1 v -2 h 1 v -2 h 1 v -1 h 1 v -2 h 1 v -2 h 1 v -1 h 1 v -2 h 1 v -2 h 1 v -1 h 1 v -2 h 1 v -1 h 1 v -2 h 1 v -2 h 1 v -2 h 1 v -2 h 1 v -2 h 1 v -2 h 1 v -2 h 1 v -2 h 1 v -2 h 1 v -2 h 1 v -2 h 1 v -2 h 1 v -2 h 1 v -3 h 1 v -2 h 1 v -2 h 1 v -2 h 1 v -3 h 1 v -2 h 1 v -2 h 1 v -3 h 1 v -2 h 1 v -3 h 1 v -2 h 1 v -3 h 1 v -2 h 1 v -3 h 1 v -2 h 1 v -3 h 1 v -3 h 1 v -3 h 1 v -2 h 1 v -3 h 1 v -3 h 1 v -3 h 1 v -3 h 1 v -3 h 1 v -3 h 1 v -3 h 1 v -4 h 1 v -3 h 1 v -3 h 1 v -3 h 1 v -4 h 1 v -3 h 1 v -4 h 1 v -4 h 1 v -3 h 1 v -4 h 1 v -4 h 1 v -4 h 1 v -4 h 1 v -4 h 1 v -4 h 1 v -4 h 1 v -4 h 1 v -5 h 1 v -4 h 1 v -5 h 1 v -5 h 1 v -5 h 1 v -5 h 1 v -5 h 1 v -6 h 1 v -6 h 1 v -6 h 1 v -8 h 1 v -9 h 1 v -9 h 1 v -9 h 1 v -10 h 1 v -10 h 1 v -10 h 1 v -10 h 1 v -11 h 1 v -11 h 1 v -11 h 1 v -11 h 1 v -12 h 1 v -12 h 1 v -13 h 1 v -13 h 1 v -14 h 1 v -14 h 1 v -16 h 1 v -16 h 1 v -17 h 1 v -19 h 1 v -21 h 1 v -22 h 1 v -30 h 1 v -383 h -1 v -30 h -1 v -22 h -1 v -21 h -1 v -19 h -1 v -17 h -1 v -16 h -1 v -16 h -1 v -14 h -1 v -14 h -1 v -13 h -1 v -13 h -1 v -12 h -1 v -12 h -1 v -12 h -1 v -11 h -1 v -11 h -1 v -10 h -1 v -10 h -1 v -11 h -1 v -9 h -1 v -10 h -1 v -9 h -1 v -9 h -1 v -9 h -1 v -8 h -1 v -7 h -1 v -5 h -1 v -6 h -1 v -5 h -1 v -6 h -1 v -4 h -1 v -5 h -1 v -5 h -1 v -4 h -1 v -5 h -1 v -4 h -1 v -5 h -1 v -4 h -1 v -4 h -1 v -4 h -1 v -3 h -1 v -4 h -1 v -4 h -1 v -4 h -1 v -3 h -1 v -4 h -1 v -3 h -1 v -4 h -1 v -3 h -1 v -3 h -1 v -4 h -1 v -3 h -1 v -3 h -1 v -3 h -1 v -3 h -1 v -3 h -1 v -3 h -1 v -3 h -1 v -3 h -1 v -3 h -1 v -2 h -1 v -3 h -1 v -3 h -1 v -2 h -1 v -3 h -1 v -2 h -1 v -3 h -1 v -3 h -1 v -2 h -1 v -3 h -1 v -2 h -1 v -2 h -1 v -3 h -1 v -2 h -1 v -2 h -1 v -2 h -1 v -3 h -1 v -2 h -1 v -2 h -1 v -2 h -1 v -2 h -1 v -2 h -1 v -2 h -1 v -2 h -1 v -2 h -1 v -2 h -1 v -2 h -1 v -2 h -1 v -2 h -1 v -2 h -1 v -2 h -1 v -1 h -1 v -2 h -1 v -2 h -1 v -1 h -1 v -2 h -1 v -2 h -1 v -1 h -1 v -2 h -1 v -2 h -1 v -1 h -1 v -2 h -1 v -2 h -1 v -1 h -1 v -1 h -1 v -2 h -1 v -1 h -1 v -2 h -1 v -1 h -1 v -1 h -1 v -2 h -1 v -1 h -1 v -2 h -1 v -1 h -1 v -1 h -1 v -2 h -1 v -1 h -1 v -1 h -1 v -1 h -1 v -1 h -1 v -2 h -1 v -1 h -1 v -1 h -1 v -1 h -1 v -1 h -1 v -1 h -1 v -2 h -1 v -1 h -1 v -1 h -1 v -1 h -1 v -1 h -1 v -1 h -1 v -1 h -1 v -1 h -1 v -1 h -1 v -1 h -1 v -1 h -1 v -1 h -1 v -1 h -1 v -1 h -1 v -1 h -2 v -1 h -1 v -1 h -1 v -1 h -1 v -1 h -1 v -1 h -1 v -1 h -1 v -1 h -1 v -1 h -1 v -1 h -1 v -1 h -1 v -1 h -2 v -1 h -1 v -1 h -1 v -1 h -1 v -1 h -1 v -1 h -1 v -1 h -2 v -1 h -1 v -1 h -1 v -1 h -1 v -1 h -1 v -1 h -2 v -1 h -1 v -1 h -1 v -1 h -1 v -1 h -2 v -1 h -1 v -1 h -2 v -1 h -1 v -1 h -1 v -1 h -2 v -1 h -1 v -1 h -1 v -1 h -2 v -1 h -1 v -1 h -1 v -1 h -2 v -1 h -1 v -1 h -2 v -1 h -1 v -1 h -2 v -1 h -2 v -1 h -1 v -1 h -2 v -1 h -1 v -1 h -2 v -1 h -2 v -1 h -1 v -1 h -2 v -1 h -1 v -1 h -2 v -1 h -2 v -1 h -2 v -1 h -2 v -1 h -2 v -1 h -1 v -1 h -2 v -1 h -2 v -1 h -2 v -1 h -2 v -1 h -2 v -1 h -2 v -1 h -2 v -1 h -3 v -1 h -2 v -1 h -2 v -1 h -2 v -1 h -2 v -1 h -3 v -1 h -2 v -1 h -3 v -1 h -2 v -1 h -3 v -1 h -2 v -1 h -3 v -1 h -3 v -1 h -3 v -1 h -3 v -1 h -3 v -1 h -3 v -1 h -3 v -1 h -3 v -1 h -4 v -1 h -4 v -1 h -3 v -1 h -4 v -1 h -4 v -1 h -5 v -1 h -4 v -1 h -5 v -1 h -5 v -1 h -6 v -1 h -5 v -1 h -7 v -1 h -7 v -1 h -8 v -1 h -9 v -1 h -9 v -1 h -11 v -1 h -9 v -1 h -12 v -1 h -15 v -1 h -15 v -1 h -15 v -1 h -16 v -1 h -17 v -1 h -18 v -1 h -18 v -1 h -19 v -1 h -20 v -1 h -20 v -1 h -22 v -1 h -22 v -1 h -24 v -1 h -25 v -1 h -26 v -1 h -28 v -1 h -30 v -1 h -31 v -1 h -34 v -1 h -36 v -1 h -39 v -1 h -43 v -1 h -48 v -1 h -54 v -1 h -63 v -1 h -78 v -1 h -130 v -1 z m -268,591 v -1 h 2 v 1 h 2 v 1 h 2 v 1 h 1 v 1 h 2 v 1 h 2 v 1 h 2 v 1 h 2 v 1 h 2 v 1 h 2 v 1 h 2 v 1 h 2 v 1 h 2 v 1 h 2 v 1 h 2 v 1 h 2 v 1 h 2 v 1 h 1 v 1 h 2 v 1 h 2 v 1 h 2 v 1 h 2 v 1 h 2 v 1 h 2 v 1 h 2 v 1 h 2 v 1 h 2 v 1 h 2 v 1 h 2 v 1 h 2 v 1 h 2 v 1 h 1 v 1 h 2 v 1 h 2 v 1 h 2 v 1 h 2 v 1 h 2 v 1 h 2 v 1 h 2 v 1 h 2 v 1 h 2 v 1 h 2 v 1 h 2 v 1 h 2 v 1 h 2 v 1 h 1 v 1 h 2 v 1 h 2 v 1 h 2 v 1 h 2 v 1 h 2 v 1 h 2 v 1 h 2 v 1 h 2 v 1 h 2 v 1 h 2 v 1 h 2 v 1 h 2 v 1 h 2 v 1 h 2 v 1 h 1 v 1 h 2 v 1 h 2 v 1 h 2 v 1 h 2 v 1 h 2 v 1 h 2 v 1 h 2 v 1 h 2 v 1 h 2 v 1 h 2 v 1 h 2 v 1 h 2 v 1 h 2 v 1 h 1 v 1 h 2 v 1 h 2 v 1 h 2 v 1 h 2 v 1 h 2 v 1 h 2 v 1 h 2 v 1 h 2 v 1 h 2 v 1 h 2 v 1 h 2 v 1 h 2 v 1 h 2 v 1 h 1 v 1 h 2 v 1 h 2 v 1 h 2 v 1 h 2 v 1 h 2 v 1 h 2 v 1 h 2 v 1 h 2 v 1 h 2 v 1 h 2 v 1 h 2 v 1 h 2 v 1 h 2 v 1 h 1 v 1 h 2 v 1 h 2 v 1 h 2 v 1 h 2 v 1 h 2 v 1 h 2 v 1 h 2 v 1 h 2 v 1 h 2 v 1 h 2 v 1 h 2 v 1 h 2 v 1 h 2 v 1 h 1 v 1 h 2 v 1 h 2 v 1 h 2 v 1 h 2 v 1 h 2 v 1 h 2 v 1 h 2 v 1 h 2 v 1 h 2 v 1 h 2 v 1 h 2 v 1 h 2 v 1 h 2 v 1 h 2 v 1 h 1 v 1 h 2 v 1 h 2 v 1 h 2 v 1 h 2 v 1 h 2 v 1 h 2 v 1 h 2 v 1 h 2 v 1 h 2 v 1 h 2 v 1 h 2 v 1 h 2 v 1 h 2 v 1 h 1 v 1 h 2 v 1 h 2 v 1 h 2 v 1 h 2 v 1 h 2 v 1 h 2 v 1 h 2 v 1 h 2 v 1 h 2 v 1 h 2 v 1 h 2 v 1 h 2 v 1 h 2 v 1 h 1 v 1 h 2 v 1 h 2 v 1 h 2 v 1 h 2 v 1 h 2 v 1 h 2 v 1 h 2 v 1 h 2 v 1 h 2 v 1 h 2 v 1 h 2 v 1 h 2 v 1 h 2 v 1 h 1 v 1 h 2 v 1 h 2 v 1 h 2 v 1 h 2 v 1 h 2 v 1 h 2 v 1 h 2 v 1 h 2 v 1 h 2 v 1 h 2 v 1 h 2 v 1 h 2 v 1 h 2 v 1 h 2 v 1 h 1 v 1 h 2 v 1 h 2 v 1 h 2 v 1 h 2 v 1 h 2 v 1 h 2 v 1 h 2 v 1 h 2 v 1 h 2 v 1 h 2 v 1 h 2 v 1 h 2 v 1 h 2 v 1 h 1 v 1 h 2 v 1 h 2 v 1 h 2 v 1 h 2 v 1 h 2 v 1 h 2 v 1 h 2 v 1 h 2 v 1 h 2 v 1 h 2 v 1 h 2 v 1 h 2 v 1 h 2 v 1 h 1 v 1 h 2 v 1 h 2 v 1 h 2 v 1 h 2 v 1 h 2 v 1 h 2 v 1 h 2 v 1 h 2 v 1 h 2 v 1 h 2 v 1 h 2 v 1 h 2 v 1 h 2 v 1 h 1 v 1 h 2 v 1 h 2 v 1 h 2 v 1 h 2 v 1 h 2 v 1 h 2 v 1 h 2 v 1 h 2 v 1 h 2 v 1 h 2 v 1 h 2 v 1 h 2 v 1 h 2 v 1 h 1 v 1 h 2 v 1 h 2 v 1 h 2 v 1 h 2 v 1 h 2 v 1 h 2 v 1 h 2 v 1 h 2 v 1 h 2 v 1 h 2 v 1 h 2 v 1 h 2 v 1 h 2 v 1 h 2 v 1 h 1 v 1 h 2 v 1 h 2 v 1 h 2 v 1 h 2 v 1 h 2 v 1 h 2 v 1 h 2 v 1 h 2 v 1 h 2 v 1 h 2 v 1 h 2 v 1 h 2 v 1 h 2 v 1 h 1 v 1 h 2 v 1 h 2 v 1 h 2 v 1 h 2 v 1 h 2 v 1 h 2 v 1 h 2 v 1 h 2 v 1 h 2 v 1 h 2 v 1 h 2 v 1 h 2 v 1 h 2 v 1 h 1 v 1 h 2 v 1 h 2 v 1 h 2 v 1 h 2 v 1 h 2 v 1 h 2 v 1 h 2 v 1 h 2 v 1 h 2 v 1 h 2 v 1 h 2 v 1 h 2 v 1 h 2 v 1 h 1 v 1 h 2 v 1 h 2 v 1 h 2 v 1 h 2 v 1 h 2 v 1 h 2 v 1 h 2 v 1 h 2 v 1 h 2 v 1 h 2 v 1 h 2 v 1 h 2 v 1 h 2 v 1 h 2 v 1 h 1 v 1 h 2 v 1 h 2 v 1 h 2 v 1 h 2 v 1 h 2 v 1 h 2 v 1 h 2 v 1 h 2 v 1 h 2 v 1 h 2 v 1 h 2 v 1 h 2 v 1 h 2 v 1 h 1 v 1 h 2 v 1 h 2 v 1 h 2 v 1 h 2 v 1 h 2 v 1 h 2 v 1 h 2 v 1 h 2 v 1 h 2 v 1 h 2 v 1 h 2 v 1 h 2 v 1 h 2 v 1 h 1 v 1 h 2 v 1 h 2 v 1 h 2 v 1 h 2 v 1 h 2 v 1 h 2 v 1 h 2 v 1 h 2 v 1 h 2 v 1 h 2 v 1 h 2 v 1 h 2 v 1 h 2 v 1 h 1 v 1 h 2 v 1 h 2 v 1 h 2 v 1 h 2 v 1 h 2 v 1 h 2 v 1 h 2 v 1 h 2 v 1 h 2 v 1 h 2 v 1 h 1 v 1 h -2 v 1 h -2 v 1 h -2 v 1 h -2 v 1 h -2 v 1 h -2 v 1 h -2 v 1 h -2 v 1 h -2 v 1 h -1 v 1 h -2 v 1 h -2 v 1 h -2 v 1 h -2 v 1 h -2 v 1 h -2 v 1 h -2 v 1 h -2 v 1 h -2 v 1 h -2 v 1 h -2 v 1 h -1 v 1 h -2 v 1 h -2 v 1 h -2 v 1 h -2 v 1 h -2 v 1 h -2 v 1 h -2 v 1 h -2 v 1 h -2 v 1 h -2 v 1 h -2 v 1 h -1 v 1 h -2 v 1 h -2 v 1 h -2 v 1 h -2 v 1 h -2 v 1 h -2 v 1 h -2 v 1 h -2 v 1 h -2 v 1 h -2 v 1 h -2 v 1 h -1 v 1 h -2 v 1 h -2 v 1 h -2 v 1 h -2 v 1 h -2 v 1 h -2 v 1 h -2 v 1 h -2 v 1 h -2 v 1 h -2 v 1 h -2 v 1 h -1 v 1 h -2 v 1 h -2 v 1 h -2 v 1 h -2 v 1 h -2 v 1 h -2 v 1 h -2 v 1 h -2 v 1 h -2 v 1 h -2 v 1 h -2 v 1 h -1 v 1 h -2 v 1 h -2 v 1 h -2 v 1 h -2 v 1 h -2 v 1 h -2 v 1 h -2 v 1 h -2 v 1 h -2 v 1 h -2 v 1 h -2 v 1 h -1 v 1 h -2 v 1 h -2 v 1 h -2 v 1 h -2 v 1 h -2 v 1 h -2 v 1 h -2 v 1 h -2 v 1 h -2 v 1 h -2 v 1 h -2 v 1 h -1 v 1 h -2 v 1 h -2 v 1 h -2 v 1 h -2 v 1 h -2 v 1 h -2 v 1 h -2 v 1 h -2 v 1 h -2 v 1 h -2 v 1 h -2 v 1 h -1 v 1 h -2 v 1 h -2 v 1 h -2 v 1 h -2 v 1 h -2 v 1 h -2 v 1 h -2 v 1 h -2 v 1 h -2 v 1 h -2 v 1 h -2 v 1 h -1 v 1 h -2 v 1 h -2 v 1 h -2 v 1 h -2 v 1 h -2 v 1 h -2 v 1 h -2 v 1 h -2 v 1 h -2 v 1 h -2 v 1 h -2 v 1 h -1 v 1 h -2 v 1 h -2 v 1 h -2 v 1 h -2 v 1 h -2 v 1 h -2 v 1 h -2 v 1 h -2 v 1 h -2 v 1 h -2 v 1 h -2 v 1 h -1 v 1 h -2 v 1 h -2 v 1 h -2 v 1 h -2 v 1 h -2 v 1 h -2 v 1 h -2 v 1 h -2 v 1 h -2 v 1 h -2 v 1 h -2 v 1 h -1 v 1 h -2 v 1 h -2 v 1 h -2 v 1 h -2 v 1 h -2 v 1 h -2 v 1 h -2 v 1 h -2 v 1 h -2 v 1 h -2 v 1 h -2 v 1 h -1 v 1 h -2 v 1 h -2 v 1 h -2 v 1 h -2 v 1 h -2 v 1 h -2 v 1 h -2 v 1 h -2 v 1 h -2 v 1 h -2 v 1 h -2 v 1 h -1 v 1 h -2 v 1 h -2 v 1 h -2 v 1 h -2 v 1 h -2 v 1 h -2 v 1 h -2 v 1 h -2 v 1 h -2 v 1 h -2 v 1 h -2 v 1 h -1 v 1 h -2 v 1 h -2 v 1 h -2 v 1 h -2 v 1 h -2 v 1 h -2 v 1 h -2 v 1 h -2 v 1 h -2 v 1 h -2 v 1 h -2 v 1 h -1 v 1 h -2 v 1 h -2 v 1 h -2 v 1 h -2 v 1 h -2 v 1 h -2 v 1 h -2 v 1 h -2 v 1 h -2 v 1 h -2 v 1 h -2 v 1 h -1 v 1 h -2 v 1 h -2 v 1 h -2 v 1 h -2 v 1 h -2 v 1 h -2 v 1 h -2 v 1 h -2 v 1 h -2 v 1 h -2 v 1 h -2 v 1 h -1 v 1 h -2 v 1 h -2 v 1 h -2 v 1 h -2 v 1 h -2 v 1 h -2 v 1 h -2 v 1 h -2 v 1 h -2 v 1 h -2 v 1 h -2 v 1 h -1 v 1 h -2 v 1 h -2 v 1 h -2 v 1 h -2 v 1 h -2 v 1 h -2 v 1 h -2 v 1 h -2 v 1 h -2 v 1 h -2 v 1 h -2 v 1 h -1 v 1 h -2 v 1 h -2 v 1 h -2 v 1 h -2 v 1 h -2 v 1 h -2 v 1 h -2 v 1 h -2 v 1 h -2 v 1 h -2 v 1 h -2 v 1 h -1 v 1 h -2 v 1 h -2 v 1 h -2 v 1 h -2 v 1 h -2 v 1 h -2 v 1 h -2 v 1 h -2 v 1 h -2 v 1 h -2 v 1 h -2 v 1 h -1 v 1 h -2 v 1 h -2 v 1 h -2 v 1 h -2 v 1 h -2 v 1 h -2 v 1 h -2 v 1 h -2 v 1 h -2 v 1 h -2 v 1 h -2 v 1 h -1 v 1 h -2 v 1 h -2 v 1 h -2 v 1 h -2 v 1 h -2 v 1 h -2 v 1 h -2 v 1 h -2 v 1 h -2 v 1 h -2 v 1 h -2 v 1 h -1 v 1 h -2 v 1 h -2 v 1 h -2 v 1 h -2 v 1 h -2 v 1 h -2 v 1 h -2 v 1 h -2 v 1 h -2 v 1 h -2 v 1 h -2 v 1 h -1 v 1 h -2 v 1 h -2 v 1 h -2 v 1 h -2 v 1 h -2 v 1 h -2 v 1 h -2 v 1 h -2 v 1 h -2 v 1 h -2 v 1 h -2 v 1 h -1 v 1 h -2 v 1 h -2 v 1 h -2 v 1 h -2 v 1 h -2 v 1 h -2 v 1 h -2 v 1 h -2 v 1 h -2 v 1 h -2 v 1 h -2 v 1 h -1 v 1 h -2 v 1 h -2 v 1 h -2 v 1 h -2 v 1 h -2 v 1 h -2 v 1 h -2 v 1 h -2 v 1 h -2 v 1 h -2 v 1 h -2 v 1 h -1 v 1 h -2 v 1 h -2 v 1 h -2 v 1 h -2 v 1 h -2 v 1 h -2 v 1 h -2 v 1 h -2 v 1 h -2 v 1 h -2 v 1 h -2 v 1 h -1 v 1 h -2 v 1 h -2 v 1 h -2 v 1 h -2 v 1 h -2 v 1 h -2 v 1 h -2 v 1 h -2 v 1 h -2 v 1 h -2 v 1 h -2 v 1 h -1 v 1 h -2 v 1 h -2 v -740" /></g></g></g></g></g></svg>