<?xml version="1.0" encoding="utf-8"?>
<!-- Generator: Adobe Illustrator 16.0.0, SVG Export Plug-In . SVG Version: 6.00 Build 0)  -->
<!DOCTYPE svg PUBLIC "-//W3C//DTD SVG 1.1//EN" "http://www.w3.org/Graphics/SVG/1.1/DTD/svg11.dtd">
<svg version="1.1" id="레이어_1" xmlns="http://www.w3.org/2000/svg" xmlns:xlink="http://www.w3.org/1999/xlink" x="0px"
	 y="0px" width="1169.563px" height="719.576px" viewBox="0 0 1169.563 719.576" enable-background="new 0 0 1169.563 719.576"
	 xml:space="preserve">
<path display="none" fill="#FFFFFF" d="M866.452,232.028l5.766-2.311c-87.543,3.678-69.651-24.438-69.651-24.438
	c-111.865-17.298-133.319-52.823-171.372-71.277c-38.061-18.452-74.96-24.219-74.96-24.219l11.193-11.852
	c-38.06-6.921-124.497,22.914-132.275,15.315c-28.748-28.094-54.309-43.429-54.309-43.429c-15.335,10.221-7.668,30.67-7.668,30.67
	c-71.564-23.004-73.733-58.838-74.121-58.784c-17.89,2.557-33.229,17.889-7.665,38.335c-20.449-2.555-46.008-58.784-46.008-58.784
	S214.71,69.819,270.94,80.04c-51.118-10.221-68.739-74.043-68.739-74.043c-36.049,43.374,13.839,148.762,129.161,146.46
	c115.32-2.311,175.287,50.739,175.287,50.739C649.647,328.898,866.452,232.028,866.452,232.028z M465.711,213.837
	c0,0-79.331,38.366-118.779,93.405c0,0-21.895,65.083,6.919,77.268c0,0-5.117-29.983,42.666-29.983
	c9.23,0,17.298,36.904,96.869,40.361c0,0-29.851-33.886,0.34-60.895c6.731-6.027,22.688-12.687,5.11-35.784
	c0,0,33.228-12.778,38.338,40.892c0,0,18.49-50.304-46.093-99.897c0,0,10.408-9.008,23.094,0.217
	C514.175,239.419,501.391,216.418,465.711,213.837z M350.962,403.416c0,0-81.874,41.512-137.23,99.175
	c0,0,72.635-8.376,85.322-8.376c0,0-61.341,79.233-132.902,99.682C111.748,609.438,52.284,622.525,5,613.295
	c0,0,23.129,77.726,127.926,39.385c-7.671,15.332-12.785,43.451-12.785,43.451s57.845-7.873,82.061-17.1
	c0,0,5.763,10.383-3.461,27.678c0,0,51.896-8.076,79.571-21.91l17.3,29.984c0,0,49.585-3.459,68.038-53.053
	c0,0,22.308,39.508,24.219,51.898c39.945-3.921,133.77-88.799,133.77-88.799l48.34-2.82l15.337-33.227l43.448,2.557l23.188-31.092
	l35.601-9.803l7.665-30.67l30.669-10.225l7.945-25.41l27.839-7.818l3.294-16.397l18.454-11.536c0,0-60.089-23.184-117.627-14.989
	C587.517,444.541,401.291,542.777,350.962,403.416z M928.638,261.743c-86.081,1.665-152.249,16.219-130.237,32.343
	c6.222,4.562,174.377,75.969,96.526,91.669c-110.242,22.231-104.452,21.158-69.805,59.093
	c34.648,37.938,148.372,112.221,200.975,109.744c14.763-0.689-3.898-24.342-3.898-24.342s88.312,32.301,102.442,26.338
	c21.059-8.877-47.386-59.404-47.386-59.404s82.191,36.049,85.892,18.359c4.32-20.63-70.503-58.346-70.503-58.346
	s46.587,9.59,58.99-1.309c16.293-14.313-80.866-56.449-80.866-56.449s35.917,2.843,49.12-7.071
	c18.837-14.15-93.79-54.723-93.79-54.723s30.607,1.978,31.102-5.674c0.64-9.899-36.153-37.114-97.216-40.06
	C959.983,291.912,1006.754,260.228,928.638,261.743z"/>
<path display="none" fill="#6495ED" d="M867.452,231.239l5.766-2.311c-87.543,3.678-69.651-24.438-69.651-24.438
	c-111.865-17.298-133.319-52.822-171.372-71.277c-38.061-18.452-74.96-24.219-74.96-24.219l11.193-11.852
	c-38.06-6.921-124.497,22.914-132.275,15.315c-28.748-28.093-54.309-43.429-54.309-43.429c-15.335,10.221-7.668,30.67-7.668,30.67
	c-71.564-23.004-73.733-58.838-74.121-58.784c-17.89,2.558-33.229,17.89-7.665,38.335c-20.449-2.555-46.008-58.784-46.008-58.784
	S215.71,69.03,271.94,79.251C220.822,69.03,203.201,5.208,203.201,5.208C167.152,48.582,217.04,153.97,332.362,151.669
	c115.32-2.312,175.287,50.738,175.287,50.738C650.647,328.109,867.452,231.239,867.452,231.239z M466.711,213.048
	c0,0-79.331,38.366-118.779,93.406c0,0-21.895,65.083,6.919,77.267c0,0-5.117-29.983,42.666-29.983
	c9.23,0,17.298,36.904,96.869,40.361c0,0-29.851-33.886,0.34-60.895c6.731-6.027,22.688-12.687,5.11-35.784
	c0,0,33.228-12.778,38.338,40.892c0,0,18.49-50.304-46.093-99.897c0,0,10.408-9.008,23.094,0.217
	C515.175,238.63,502.391,215.629,466.711,213.048z M351.962,402.627c0,0-81.874,41.512-137.23,99.176c0,0,72.635-8.377,85.322-8.377
	c0,0-61.341,79.233-132.902,99.682C112.748,608.648,53.284,621.736,6,612.506c0,0,23.129,77.727,127.926,39.385
	c-7.671,15.332-12.785,43.451-12.785,43.451s57.845-7.873,82.061-17.099c0,0,5.763,10.382-3.461,27.677
	c0,0,51.896-8.076,79.571-21.91l17.3,29.984c0,0,49.585-3.459,68.038-53.053c0,0,22.308,39.51,24.219,51.898
	c39.945-3.921,133.77-88.799,133.77-88.799l48.34-2.82l15.337-33.227l43.448,2.557l23.188-31.092l35.601-9.803l7.665-30.67
	l30.669-10.225l7.945-25.41l27.839-7.818l3.294-16.397l18.454-11.536c0,0-60.089-23.184-117.627-14.989
	C588.517,443.752,402.291,541.988,351.962,402.627z M929.638,260.954c-86.081,1.666-152.249,16.219-130.237,32.343
	c6.222,4.562,174.377,75.969,96.526,91.669c-110.242,22.231-104.452,21.158-69.805,59.093
	c34.648,37.938,148.372,112.221,200.975,109.744c14.763-0.689-3.898-24.342-3.898-24.342s88.312,32.301,102.442,26.338
	c21.059-8.877-47.386-59.404-47.386-59.404s82.191,36.049,85.892,18.359c4.32-20.63-70.503-58.346-70.503-58.346
	s46.587,9.59,58.99-1.309c16.293-14.313-80.866-56.449-80.866-56.449s35.917,2.843,49.12-7.071
	c18.837-14.151-93.79-54.723-93.79-54.723s30.607,1.979,31.102-5.674c0.64-9.899-36.153-37.114-97.216-40.061
	C960.983,291.122,1007.754,259.438,929.638,260.954z"/>
<path display="none" fill="#FFFFFF" d="M487.456,234.573c64.583,49.594,46.093,99.897,46.093,99.897
	c-5.109-53.67-38.338-40.892-38.338-40.892c17.577,23.098,1.621,29.757-5.11,35.784c-30.19,27.009-0.34,60.896-0.34,60.896
	c-79.571-3.457-87.639-40.361-96.869-40.361c-47.783,0-42.666,29.984-42.666,29.984c-28.813-12.184-6.919-77.268-6.919-77.268
	c39.448-55.039,118.779-93.405,118.779-93.405c35.68,2.581,48.464,25.582,48.464,25.582
	C497.863,225.565,487.456,234.573,487.456,234.573z M1093.645,456.619c0,0,46.586,9.59,58.989-1.309
	c16.294-14.313-80.866-56.449-80.866-56.449s35.917,2.843,49.121-7.071c18.837-14.15-93.791-54.723-93.791-54.723
	s30.607,1.978,31.102-5.674c0.64-9.899-36.153-37.114-97.216-40.06c0,0,46.771-31.685-31.346-30.169
	c-86.081,1.665-152.249,16.219-130.236,32.343c6.221,4.562,174.377,75.969,96.525,91.669
	c-110.241,22.231-104.451,21.158-69.805,59.093c34.648,37.938,148.372,112.221,200.975,109.744
	c14.764-0.689-3.898-24.342-3.898-24.342s88.312,32.301,102.442,26.338c21.059-8.877-47.386-59.404-47.386-59.404
	s82.191,36.049,85.892,18.359C1168.467,494.335,1093.645,456.619,1093.645,456.619z M778.327,401.206
	c4.603-27.618,92.531-18.808,94.672-33.787c2-14-40.76-39.515-79-60c-56-30,61-85,61-85c-87.543,3.678-51.432-17.717-51.432-17.717
	c-111.866-17.298-133.32-52.823-171.373-71.277c-38.06-18.452-74.96-24.219-74.96-24.219l11.193-11.852
	c-38.06-6.921-124.497,22.914-132.275,15.315c-28.748-28.094-54.309-43.429-54.309-43.429c-15.335,10.221-7.668,30.67-7.668,30.67
	c-71.564-23.004-73.733-58.838-74.121-58.784c-17.89,2.557-33.229,17.889-7.665,38.335c-20.449-2.555-46.008-58.784-46.008-58.784
	s-20.04,31.741,1.999,49.302c-33.116-20.873-45.179-64.561-45.179-64.561c-36.049,43.374,13.839,148.762,129.161,146.46
	C447.682,149.568,505,212.419,505,212.419c3.968,3.488,7.989,6.78,12.05,9.904C534.19,239.302,556,260.419,556,260.419
	c-21-12-38-10-38-10c84,79,15,132.999,15,132.999c4-33.999-16-74.999-16-74.999c10,33-21,33-24,47c-4.36,20.346,46,57.998,46,57.998
	c-85,11-137-38.998-137-38.998c-18.259,6.639-44.766,24.288-53.258,30.101c-15.646,8.292-85.15,46.598-134.009,97.493
	c0,0,72.635-8.376,85.322-8.376c0,0-61.341,79.233-132.902,99.682C112.748,608.859,53.284,621.947,6,612.717
	c0,0,23.129,77.726,127.926,39.385c-7.671,15.332-12.785,43.451-12.785,43.451s57.845-7.873,82.061-17.1
	c0,0,5.763,10.383-3.461,27.678c0,0,51.896-8.076,79.571-21.91l17.3,29.984c0,0,49.585-3.459,68.038-53.053
	c0,0,22.308,39.508,24.219,51.898c39.945-3.921,133.77-88.799,133.77-88.799l48.341-2.82l15.336-33.227l43.448,2.557l23.188-31.092
	l35.602-9.803l7.664-30.67l30.67-10.225l7.944-25.41l27.839-7.818l3.295-16.397l18.453-11.536
	C784.417,447.811,776.327,413.206,778.327,401.206z"/>
<path fill="#6495ED" d="M487.456,233.573c64.583,49.594,46.093,99.897,46.093,99.897c-5.109-53.67-38.338-40.892-38.338-40.892
	c17.577,23.098,1.621,29.757-5.11,35.784c-30.19,27.009-0.34,60.896-0.34,60.896c-79.571-3.457-87.639-40.361-96.869-40.361
	c-47.783,0-42.666,29.984-42.666,29.984c-28.813-12.184-6.919-77.268-6.919-77.268c39.448-55.039,118.779-93.405,118.779-93.405
	c35.68,2.581,48.464,25.582,48.464,25.582C497.863,224.565,487.456,233.573,487.456,233.573z M1093.645,456.408
	c0,0,46.586,9.59,58.989-1.309c16.294-14.313-80.866-56.449-80.866-56.449s35.917,2.843,49.121-7.071
	c18.837-14.15-93.791-54.723-93.791-54.723s30.607,1.978,31.102-5.674c0.64-9.899-36.153-37.114-97.216-40.06
	c0,0,46.771-31.685-31.346-30.169c-86.081,1.665-152.249,16.219-130.236,32.343c6.221,4.562,174.377,75.969,96.525,91.669
	c-110.241,22.231-104.451,21.158-69.805,59.093c34.648,37.938,148.372,112.221,200.975,109.744
	c14.764-0.689-3.898-24.342-3.898-24.342s88.312,32.301,102.442,26.338c21.059-8.877-47.386-59.404-47.386-59.404
	s82.191,36.049,85.892,18.359C1168.467,494.124,1093.645,456.408,1093.645,456.408z M778.327,400.996
	c4.603-27.618,92.531-18.808,94.672-33.788c2-14-40.76-39.515-79-60c-56-30,61-85,61-85c-87.543,3.678-51.432-17.717-51.432-17.717
	c-111.866-17.298-133.32-52.823-171.373-71.277c-38.06-18.452-74.96-24.219-74.96-24.219l11.193-11.852
	c-38.06-6.921-124.497,22.914-132.275,15.315c-28.748-28.094-54.309-43.429-54.309-43.429c-15.335,10.221-7.668,30.67-7.668,30.67
	c-71.564-23.004-73.733-58.838-74.121-58.784c-17.89,2.557-33.229,17.889-7.665,38.335c-20.449-2.555-46.008-58.784-46.008-58.784
	s-20.04,31.741,1.999,49.302c-33.116-20.873-45.179-64.561-45.179-64.561c-36.049,43.374,13.839,148.762,129.161,146.46
	C447.682,149.357,505,212.208,505,212.208c3.968,3.488,7.989,6.78,12.05,9.904C534.19,239.091,556,260.208,556,260.208
	c-21-12-38-10-38-10c84,79,15,132.999,15,132.999c4-33.999-16-74.999-16-74.999c10,33-21,33-24,47c-4.36,20.346,46,57.998,46,57.998
	c-85,11-137-38.998-137-38.998c-18.259,6.64-44.766,24.288-53.258,30.101c-15.646,8.292-85.15,46.598-134.009,97.493
	c0,0,72.635-8.376,85.322-8.376c0,0-61.341,79.233-132.902,99.682C112.748,608.648,53.284,621.736,6,612.506
	c0,0,23.129,77.726,127.926,39.385c-7.671,15.332-12.785,43.451-12.785,43.451s57.845-7.873,82.061-17.1
	c0,0,5.763,10.383-3.461,27.678c0,0,51.896-8.076,79.571-21.91l17.3,29.984c0,0,49.585-3.459,68.038-53.053
	c0,0,22.308,39.508,24.219,51.898c39.945-3.921,133.77-88.799,133.77-88.799l48.341-2.82l15.336-33.227l43.448,2.557l23.188-31.092
	l35.602-9.803l7.664-30.67l30.67-10.225l7.944-25.41l27.839-7.818l3.295-16.397l18.453-11.536
	C784.417,447.6,776.327,412.995,778.327,400.996z"/>
<path display="none" fill="#FFFFFF" d="M507.322,202.407c0,0-59.967-53.05-175.287-50.739
	C216.712,153.97,166.825,48.582,202.873,5.208c0,0,17.622,63.822,68.74,74.043c-56.229-10.221-25.559-58.784-25.559-58.784
	s25.559,56.229,46.008,58.784c-25.564-20.446-10.225-35.778,7.665-38.335c0.388-0.054,2.557,35.78,74.121,58.784
	c0,0-7.667-20.449,7.668-30.67c0,0,25.561,15.335,54.309,43.429c7.778,7.599,94.215-22.236,132.275-15.315l-11.193,11.852
	c0,0,36.899,5.767,74.96,24.219c38.054,18.454,59.507,53.979,171.372,71.277c0,0-17.892,28.115,69.651,24.438l-5.767,2.311
	C867.124,231.239,650.32,328.109,507.322,202.407z M462.415,208.208c0,0-79.331,38.366-118.779,93.405
	c0,0-21.895,65.084,6.919,77.268c0,0-5.117-29.984,42.666-29.984c9.23,0,17.298,36.904,96.869,40.361c0,0-29.851-33.887,0.34-60.896
	c6.731-6.027,22.688-12.687,5.11-35.784c0,0,33.228-12.778,38.338,40.892c0,0,18.49-50.304-46.093-99.897
	c0,0,10.407-9.008,23.094,0.217C510.879,233.79,498.095,210.789,462.415,208.208z M351.635,402.627c0,0-81.874,41.512-137.23,99.175
	c0,0,72.635-8.376,85.322-8.376c0,0-61.341,79.233-132.902,99.682c-54.403,15.541-113.869,28.629-161.152,19.398
	c0,0,23.129,77.726,127.926,39.385c-7.671,15.332-12.785,43.451-12.785,43.451s57.845-7.873,82.06-17.1
	c0,0,5.763,10.383-3.46,27.678c0,0,51.896-8.076,79.571-21.91l17.3,29.984c0,0,49.585-3.459,68.038-53.053
	c0,0,22.309,39.508,24.218,51.898c39.946-3.921,133.77-88.799,133.77-88.799l48.34-2.82l15.337-33.227l43.448,2.557l23.188-31.092
	l35.602-9.803l7.665-30.67l30.669-10.225l7.945-25.41l27.839-7.818l3.294-16.397L784.09,447.6c0,0-60.089-23.184-117.626-14.989
	C588.19,443.752,401.964,541.988,351.635,402.627z M929.311,260.954c-86.081,1.665-152.249,16.219-130.237,32.343
	c6.223,4.562,174.377,75.969,96.526,91.669c-110.242,22.231-104.452,21.158-69.804,59.093
	c34.647,37.938,148.371,112.221,200.974,109.744c14.763-0.689-3.898-24.342-3.898-24.342s88.312,32.301,102.442,26.338
	c21.059-8.877-47.387-59.404-47.387-59.404s82.191,36.049,85.893,18.359c4.32-20.63-70.502-58.346-70.502-58.346
	s46.586,9.59,58.988-1.309c16.295-14.313-80.865-56.449-80.865-56.449s35.916,2.843,49.12-7.071
	c18.837-14.15-93.79-54.723-93.79-54.723s30.607,1.978,31.102-5.674c0.639-9.899-36.153-37.114-97.216-40.06
	C960.656,291.123,1007.427,259.438,929.311,260.954z M552.671,261.208c-21-12-35-11-35-11c70,67,15,125,15,125c4-34-16-67-16-67
	c11,17-21,33-24,47c-4.359,20.346,46,57.998,46,57.998c-85,11-137-38.998-137-38.998c-22,8-42,23.999-42,23.999
	c31,87.999,135.266,62.809,249.328,23.788c114-38.998,174,3,174,3s-7-12-5-23.999c4.604-27.618,92.532-18.808,94.672-33.788
	c2-14-40-41-79-60s-16.672-27.211-16.672-27.211C631.671,310.208,552.671,261.208,552.671,261.208z"/>
<path display="none" fill="#6495ED" d="M507.322,202.196c0,0-59.967-53.05-175.287-50.739
	c-115.322,2.302-165.21-103.085-129.162-146.46c0,0,17.622,63.822,68.74,74.043c-56.229-10.221-25.559-58.784-25.559-58.784
	s25.559,56.229,46.008,58.784c-25.564-20.446-10.225-35.778,7.665-38.334c0.388-0.055,2.557,35.779,74.121,58.783
	c0,0-7.667-20.449,7.668-30.67c0,0,25.561,15.335,54.309,43.43c7.778,7.598,94.215-22.237,132.275-15.316l-11.193,11.852
	c0,0,36.899,5.767,74.96,24.219c38.054,18.454,59.507,53.979,171.372,71.277c0,0-17.892,28.115,69.651,24.438l-5.767,2.311
	C867.124,231.028,650.32,327.898,507.322,202.196z M462.415,208.786c0,0-79.331,38.366-118.779,93.405
	c0,0-21.895,65.084,6.919,77.268c0,0-5.117-29.984,42.666-29.984c9.23,0,17.298,36.904,96.869,40.361c0,0-29.851-33.887,0.34-60.896
	c6.731-6.026,22.688-12.687,5.11-35.784c0,0,33.228-12.778,38.338,40.892c0,0,18.49-50.304-46.093-99.897
	c0,0,10.407-9.008,23.094,0.217C510.879,234.368,498.095,211.367,462.415,208.786z M351.635,402.416
	c0,0-81.874,41.512-137.23,99.175c0,0,72.635-8.376,85.322-8.376c0,0-61.341,79.233-132.902,99.682
	c-54.403,15.541-113.869,28.629-161.152,19.398c0,0,23.129,77.726,127.926,39.385c-7.671,15.332-12.785,43.451-12.785,43.451
	s57.845-7.873,82.06-17.1c0,0,5.763,10.383-3.46,27.678c0,0,51.896-8.076,79.571-21.91l17.3,29.984c0,0,49.585-3.459,68.038-53.053
	c0,0,22.309,39.508,24.218,51.898c39.946-3.921,133.77-88.799,133.77-88.799l48.34-2.82l15.337-33.227l43.448,2.557l23.188-31.092
	l35.602-9.803l7.665-30.67l30.669-10.225l7.945-25.41l27.839-7.818l3.294-16.397l18.454-11.536c0,0-60.089-23.184-117.626-14.989
	C588.19,443.541,401.964,541.777,351.635,402.416z M929.311,260.743c-86.081,1.665-152.249,16.219-130.237,32.343
	c6.223,4.562,174.377,75.969,96.526,91.669c-110.242,22.231-104.452,21.158-69.804,59.093
	c34.647,37.938,148.371,112.221,200.974,109.744c14.763-0.689-3.898-24.342-3.898-24.342s88.312,32.301,102.442,26.338
	c21.059-8.877-47.387-59.404-47.387-59.404s82.191,36.049,85.893,18.359c4.32-20.63-70.502-58.346-70.502-58.346
	s46.586,9.59,58.988-1.309c16.295-14.313-80.865-56.449-80.865-56.449s35.916,2.843,49.12-7.071
	c18.837-14.15-93.79-54.723-93.79-54.723s30.607,1.979,31.102-5.674c0.639-9.899-36.153-37.114-97.216-40.059
	C960.656,290.913,1007.427,259.228,929.311,260.743z M552.671,260.997c-21-12-35-11-35-11c70,67,15,125,15,125c4-34-16-67-16-67
	c11,17-21,33-24,47c-4.359,20.346,46,57.998,46,57.998c-85,11-137-38.998-137-38.998c-22,8-42,23.999-42,23.999
	c31,87.999,135.266,62.809,249.328,23.788c114-38.998,174,3,174,3s-7-12-5-23.999c4.604-27.618,92.532-18.808,94.672-33.788
	c2-14-40-41-79-60s-16.672-27.211-16.672-27.211C616.671,300.786,552.671,260.997,552.671,260.997z"/>
</svg>
